/* XPM */
static const char * team_logo_xpm[] = {
"192 48 16 1",
" 	c None",
".	c #0E100C",
"+	c #2E2F2D",
"@	c #4A4C4A",
"#	c #0573BE",
"$	c #706B69",
"%	c #1B7DBC",
"&	c #368EC8",
"*	c #8B8685",
"=	c #5DA9D8",
"-	c #ADAFAC",
";	c #83BAD9",
">	c #C9CBC8",
",	c #AFD3E9",
"'	c #DEE9EC",
")	c #FCFFFB",
")))))))))))))))'-+++.-')))))))))))))))))))))))))))))))))))))))))))))))))))))))))))))))))))))))))))))))))))))))))))))))))))))))))))))))))))))))))))))))))))))))))'',;;)))';;'''))))))))))))))))))",
")))))))))))))>$$*))))*@@-))))))))))))))))))))))))))))))))))))))))))))))))))))))))))))))))))))))))))))))))))))))))))))))))))))))))))))))))))))))))))))))))))))',=&####;)'%###%&;'))))))))))))))))",
")))))))))))))@>))))))))).*)))))))))))))))))))))))))))))))))))))))))))))))))))))))))))))))))))))))))))))))))))))))))))))))))))))))))))))))))))))))))))))))))';&#######%'=#######%=,')))))))))))))",
")))))))))))).*))))))))))).>)))'''''')))))))))))))))))))))))))))))))))))))))))))))))))))))))))))))))))))))))))))))))))))))))))))))))))))))))))))))))))))))';&##########=###########='))))))))))))",
"))))))))))>.'))))))))))))>+)*@$****$@*))))))))))))))))))))))))))))))))))))))))))))))))))))))))))))))))))))))))))))))))))))))))))))))))))))))))))))))))))'&#########################%=)))))))))))",
"))))))))))*-)))))))))))))).+$'))))))'$.)))))))))))))))))))))))))))))))))))))))))))))))))))))))))))))))))))))))))))))))))))))))))))))))))))))))))))))))),%############################=))))))))))",
"))))))))))$')))))))))))))))@))))))))))@+))))))))))))))))))))))))))))))))))))))))))))))))))))))))))))))))))))))))))))))))))))))))))))))))))))))))))))))'%##############################&'))))))))",
"))))))))*$*))))))))))))))))))))))))))))$$)))))))))))))))))))))))))))))))))))))))))))))))))))))))))))))))>)))))))))>))))))))))))''))))')))))))))))))));#################################&')))))))",
")))))*....*)))))))))))))))))))))))))))))$')))))))))'>>>>>>>>>>>)))))))'+)))))))'>>>>-++++++$)))'*+@))))>+))))))))'.'))))))))+')>@)))-+)))))))))))))),###################################&'))))))",
")))>.+))))))))))))))))))))))))))))))))))*@)))))))))@...........>))))))>.)))))))@...+*$>*@>-@)'...*))$$)>+))))))))'.)))))))))*$)'+')'.-)))))))))))))'=####################################,))))))",
"))-.>)))))))))))))))))))))))))))))))))))'.)))))))))@>)*')))@)).>))))))>.)))))))))@>)**)>$)'@))').>))'@@>+))))))))>.)))))))'$@.$$.@$+.$*))))))))))))),===&%##########################%&==;'))))))",
")'.))))))))))))))))))))))))))))))))))))))+)))))))))@>)*@))*@)).>))*)))>.)))'$))))+>)*.++.++@)))).'))))*>+))))))))>.)))))))>.>>-->--->*+)))))))))))))))'''';#######################=,''')))))))))",
")$')))))))))))))))))))))))))))))))))))))).)))))))))@>>-$>>@->).>)).'))>.)))'.))))+>)*$>*@>-@)>.....>)))>+)))+...........+)>.)))))))))>@))))))))))))))))))))),%##################=,))))))))))))))",
"'$))))))))))))))))))))'**-))))))))))))))).)))))))))@>+@@+.@@+>.>)).'))>.)))'.))-$.@-**)>$)'@))>*.*>'+-)>+)))>--->+.@>--->)>@'+++++..*'*))))))))))))))))))))))'=###############%,))))))))))))))))",
"*-)))))))))))))))))))'$'-$')))))*-)))))))+)))))))))@>)')-$)'').>)).'))>.)))'.))>-+*>*.@+.@+@)))+.+))>.*>+))))))))+$+)))))))))))))-.*))))))))))))))))))))))))))),%############&')))))))))))))))))",
".))))))))))))))))))))>**.$$)))'+..*))))))>.$)))))))@>'@)-@)*$).>)).'))>.)))'.))))+>)'->*@->>))>@.@@))'->+)))))))>.)+>)))))))))))$.>))))))))))))),=')))))))))))));%##########&')))))))))))));='))",
"+)))))))))))))))))))).)+...)))+)+.+')))))))+$))))))@>'@)-@)*$).>)).'))>.)))'.))))+>))))-@)))))@>.>$)))'-.*-)))))$$)*@)))))-****$.$*****)))))))))%#%))))))))))))));#########&'))))))))))))),%#;))",
"+)))))))))))))))))))).)+.$+))@)*..@)))))))))@+)))))@>'@'-@)*$).>)).'))>.)))'.))))@--*++..++@)-+).>)$@+.+.$-))))>.>)'.*))))>*****+$*****))))))))'###=))))))))))''))=########,)),))))))))))'###%))",
"+)))))))))))))))))))).)@+*))).)*..@))))))))))+'))))@>'......*).>)).'))>.)))'.)))-..@)))-@))))'-).>)$*>)>+)))))'.$)))*.-)))))))))@>)))))))))))));####;)))))))))=#,''%######;)'=#,))))))))'&###%')",
"*-)))))))))))))))))))$>))+')).)>.+@')))))))))>*))))@>'$))))-*).>)).$$$@.$$$$.))@.$'))))-@))))))).>)))))>+))))>.@)))))$.-))))))))@>)))))))))))))&#####;))))))),###&,;#####%'=%##&'))))))'&#####,)",
"'*))))))))))))))))))))*++))))>+)'>$))))))))))'$))))@>)))))))$$.')).*********.))')))@+++..+++-))).>)))))>+)))$.*)))))))*.@))))>$$.>)))))))))))))%######&')))));#####&#####&%####%'))))),#######;)",
")+')))))))))))))))))))))))))))$$>+))))))))))))$')))>')))))))>>')))*)))))))))*))))))'''''''''))))$')))))'$)))>>)))))))))>>))))'**>)))))))))))))'%#######%''))))'%##############=)))))'=########=)",
")>$-)))))))))))))))))))))))))))-$)))))))))))))*'))))))))))))))))))))))))))))))))))))))))))))))))))))))))))))))))))))))))))))))))))))))))))))))'%#########&;''))),&##########=,))'',=&#########=)",
"))'.))))))))))))))))))))))))))))))))))))))))))*'))))))))))))))))))))))))))))))))))))))))))))))))))))))))))))))))))))))))))))))))))))))))))))))'%###########%%=;;;;#########%;;;;=%%###########=)",
")))'.'))))))))))))))))))))))))))))))))))))))))$'))))))))))))))))))))))))))))))))))))))))))))))))))))))))))))))))))))))))))))))))))))))))))))))'%##############################################=)",
"))*@>))))))))))))))))))))))))))))))))))))))))'$)))))))))))))))))))))))))))))))))))))))))))))))))))))))))))))))))))))))))))))))))))))))))))))))'%##############################################=)",
")).))))))))))))))))))))))))))))))))))))))))))-*)))))))))))))))))))))))))))))))))))))))))))))))))))))))))))))))))))))))))))))))))))))))))))))))'%##############################################=)",
")$>))))))))))))))))))))))))))))))))))))))))))+)))))))))))))))))))))))))))))))))))))))'')))))))))))))'))))))))))))))')))))))))')))))))))))))))))%##############################################;)",
"'.'))))))))))))))))))))))))))))))))))))))))>.>)))))))))',))))))))====,;=====;')))''''=&''''')))))))'%'))))))))))))'%')))))))'=,)),'))''))))))))&####################%%##&%####################,)",
"'$))))))))))))))))))))))))))))))))))))))))).>))))))))));&))))))))%;,%,&=;;;;;'))=%#########=)))')))'%,)))'))))))))'%'))))))))'%');=)'%'))))))));####################,&##,&###################%')",
"'*)))))))))))))))))))))))))))))))))))))))*.*)))))))))));&))))))))%,'%'&'))))))))=&'';,''',,'))'&%%%%%%%%%%,)))))))'%'))))))'&&%&&%%&%%&=))))))),###################=)&##;'%##################%')",
"'$))))))))))))))))))))))))))))))))))))))*$)))))))),;;;;&&;;;;;'))%,;=)&,''''')))=&))%,)))&&)))),;=,,,,,;=,'));;;;;=&;;;;;')'&=,,,,,,,,&&))))))))%#################%')&##;)=##################;))",
"'*))))))))))))))))))))))))))))))))))))))$'))))))))=&&&&&%&&&&&'))%,&''&#####;)))=&),&''''&=)))))'&'))))=,))))=&&&&&%&&&&&,)'&,,,,,,,,'=&))))))));#################%))&##;)'##################'))",
"'*)))))))))))))))))))))))))))))))))))))'*))))))))))))))=#))))))))%;&,)&;,''=;)))=&)&==###%%&')))'%')))'&')))))))));#')))))))='&%%%%#%&=&))))))))'&################,))&##,))&################&)))",
"'.'))))))))))))))))))))))))))))))))))))$-)))))))))))))'&#;)))))))%,'%'&,#')&;)))=&,%='','&&'))))'&')))'%')))))))))&%;)))))))))))))'=%,))))))))))),,,;%############')),,,'));############&,,,')))",
")$')))))))))))))))))))))))))))))))))))@.))))))))))))))'%=%)))))))%;)%,%'&,)#')))=%&%=,%))&=))))))=;))),&')))))))),%=%))))))))))));%=))))))))))))))))=#############))))))))),#############'))))))",
")).)))))'-@-')))'))))))))))))))))))))$.)))))))))))))))&;'%,))))))%;)%,%'===&))))=%,==)%&)&=))))));&)));=)))))))))=&'%,))))));====&&====;)))))))))))'%############&)))))))))'#############=))))))",
"))-.>))-$***$*)$.$)))))))))*$))))))***)))))))))))))))=%');&))))))%;;%;&''&%,))))&&)==),#,&=)))))),%)))&;)))))))),#,);%')))));;;;;&&;;;;,)))))))))))=#############=)))))))))'##############,)))))",
")))>.')@)))))*@.).))))))))@.*++....$'))))))))))))))),#;))'&=)))))%;%=;&''%%)))))&;)==))')&=))))))'%,)'#'))))))),%=)))&%))))))))));=))))))))))))))))'%############=)))))))))'%############&))))))",
")))))@.*)))))*.))).$''''>.')))))))))))))))))))))))'=%;)))),%%,)))%,))&;'&%&&)))'#,)==))))&=)))''')&=)=&)''')));%&)))))&%,))))))));=)))))))))))))))))=############&)))))))))'############%'))))))",
"))))))@')))))'.))))**@$$*>))))))))))))))))))))))))&#;))))))'&#,))%;);%,%=''&&'),&))==)),=%=))),&&&&%&&&&&&=)'=%;')))))'=#;))))';;&=))))))))))))))))))=###########%)))))))))'############,)))))))",
"))))))>*)))))*.)))))))))))))))))))))))))))))))))))='))))))))',;))&,'&,'')))','))'))''))'''')))''''''''''''')'=')))))))))',))))'&&&,)))))))))))))))))))=###########'))))))));###########'))))))))",
"))))))'.>)))>@)))>-))))))))))))))))))))))))))))))))))))))))))))))))))))))))))))))))))))))))))))))))))))))))))))))))))))))))))))))))))))))))))))))))))))=##########,))))))))&#########&')))))))))",
")))))))>+***+>))***$'))))))))))))))))))))))))))))))))))))))))))))))))))))))))))))))))))))))))))))))))))))))))))))))))))))))))))))))))))))))))))))))))))),%########&)))))))'########%='))))))))))",
")))))))))'''))).*))>.))))))))))))))))))))))))))))))))))))))))))))))))))))))))))))))))))))))))))))))))))))))))))))))))))))))))))))))))))))))))))))))))))))'=#######%'))))))=#######%,))))))))))))",
"))))))))))))))).*))'.)))))))))))))))))))))))))))))))))))))))))))))))))))))))))))))))))))))))))))))))))))))))))))))))))))))))))))))))))))))))))))))))))))))),=%#####=)))))'%#####%,))))))))))))))",
")))))))))))))))>+))@$))))))))))))))))))))))))))))))))))))))))))))))))))))))))))))))))))))))))))))))))))))))))))))))))))))))))))))))))))))))))))))))))))))))))';&###%')))),###%=,')))))))))))))))",
"))))))))))))))))*++*)))))))))))))))))))))))))))))))))))))))))))))))))))))))))))))))))))))))))))))))))))))))))))))))))))))))))))))))))))))))))))))))))))))))))))'',;,)))))';;''))))))))))))))))))"};
