/* XPM */
static char *sigla__[] = {
/* columns rows colors chars-per-pixel */
"256 64 64 1",
"  c black",
". c gray1",
"X c gray2",
"o c gray9",
"O c #0C0D0E",
"+ c #3A3A3A",
"@ c #272727",
"# c #464646",
"$ c #6F6F6F",
"% c #575758",
"& c None",
"* c #069C06",
"= c #039A03",
"- c #0B9E0B",
"; c #13A113",
": c #15A215",
"> c #1CA51C",
", c #11A011",
"< c #26A826",
"1 c #28A928",
"2 c #3AB03A",
"3 c #34AE34",
"4 c #4EB84E",
"5 c #3EB23E",
"6 c #46B546",
"7 c #57BC57",
"8 c #61C061",
"9 c #6BC46B",
"0 c #75C875",
"q c #78C978",
"w c #447DBC",
"e c #3D78B9",
"r c #4A82BD",
"t c #6B97C7",
"y c #6292C6",
"u c #929292",
"i c #88D088",
"p c #9CD89C",
"a c #95D595",
"s c #84CE84",
"d c #A7DCA7",
"f c #BCE4BC",
"g c #B1E0B1",
"h c #91B0D2",
"j c #B4CAE3",
"k c #AEC0D4",
"l c #C6C6C6",
"z c #D8D8D8",
"x c #CDCED0",
"c c #C3E7C3",
"v c #C7E9C7",
"b c #D7EFD7",
"n c #D2EDD2",
"m c #DAF1DA",
"M c #CBDAEA",
"N c gray91",
"B c #E9F7E9",
"V c gray100",
"C c #FDFDFD",
"Z c gray98",
"A c #F4F7F5",
"S c #EAEFF5",
"D c #DAE5EF",
"F c #B0B0B1",
/* pixels */
"&&&&&&&&&&&&&&&&&&&&&&&&&&&&&&&&&&&&&&&&&&&&&&&&&&&&&&&&&&&&&&&&&&&&&&&&&&&&&&&&&&&&&&&&&&&&&&&&&&&&&&&&&&&&&&&&&&&&&&&&&&&&&&&&&&&&&&&&&&&&&&&&&&&&&&&&&&&&&&&&&&&&&&&&&&&&&&&&&&&&&&&&&&&&&&&&&&&&&&&&&&&&&&&&&&&&&&&&&&&&&&&&&&&&&&&&&&&&&&&&&&&&&&&&&&&&&&&&",
"&&&&&&&&&&&&&&&======*******************--,,,,;;::::;;,---**************************************************************************************************************************************************************************======&&&&&&&&&&&&&&&&&&&&&&",
"&&&&&&&&&&&&==***----,,,;;;;;;;:::::>>><133332255555533111<>>:::;;;;;;;;;;;;;;;;;;;;;;;;;;;;;;;;;;;;;;;;;;;;;;;;;;;;;;;;;;;;;;;;;;;;;;;;;;;;;;;;;;;;;;;;;;;;;;;;;;;;;;;;;;;;;;;;;;;;;;;;;;;;;;;;;;;;;;;;;;;;;;;;;;;;;;;;;;;;;;;;;,,,----***==&&&&&&&&&&&&&&&&&&&",
"&&&&&&&&&&&=**--,;:>>><<<<<<<<1113332564478889900000998774463331111<<<<<<<<<<<<<<<<<<<<<<<<<<<<<<<<<<<<<<<<<<<<<<<<<<<<<<<<<<<<<<<<<<<<<<<<<<<<<<<<<<<<<<<<<<<<<<<<<<<<<<<<<<<<<<<<<<<<<<<<<<<<<<<<<<<<<<<<<<<<<<<<<<<<<<<<<<<<<<<<>>>:;,--**=&&&&&&&&&&&&&&&&&&",
"&&&&&&&&&&&=*-,:>><113322222222566477899qsiaaapppdppaiiiqq0887465552222222222222222222222222222222222222222222222222222222222222222222222222222222222222222222222222222222222222222222222222222222222222222222222222222222222222223311<>>:,-*=&&&&&&&&&&&&&&&&&&",
"&&&&&&&&&&&*-,:><133256444444447799qqiiapdggffffccccfggddpaiqq98877444444444444444444444444444444444444444444444444444444444444444444444444444444444444444444444444444444444444444444444444444444444444444444444444444444444444444652331<>:,-*&&&&&&&&&&&&&&&&&&",
"&&&&&&&&&&=*-:><13264478888888890siippdffcvnnbbbmmmmnnvvcfgdpaisq099888888888888888888888888888888888888888888888888888888888888888888888888888888888888888888888888888888888888888888888888888888888888888888888888888888888888887446231<>:-*=&&&&&&&&&&&&&&&&&",
"&&&&&&&&&&=*,><13564789000000qqiaapdgfcnnmmBBBBBBBBBBBBBmbvvfgdpaiissqq0000000000000000000000000000000000000000000000000000000000000000000000000000000000000000000000000000000000000000000000000000000000000000000000000000000000098746531<>,*=&&&&&&&&&&&&&&&&&",
"&&&&&&&&&&=-;>13567890ssiiiiiiapdggcvnmBBBAZZVVVVVVVVCCZABmmnvfggdppaaiiiiiiiiiiiiiiiiiiiiiiiiiiiiiiiiiiiiiiiiiiiiiiiiiiiiiiiiiiiiiiiiiiiiiiiiiiiiiiiiiiiiiiiiiiiiiiiiiiiiiiiiiiiiiiiiiiiiiiiiiiiiiiiiiiiiiiiiiiiiiiiiiiiiiiiiiiiss09876531>;-=&&&&&&&&&&&&&&&&&",
"&&&&&&&&&&=-:<326789qsaapppppddgfvvbmBBAZCZZZDtrrrrrrtDZZZZZBmnvcffggddppppppppppppppppppppppppppppppppppppppppppppppppppppppppppppppppppppppppppppppppppppppppppppppppppppppppppppppppppppppppppppppppppppppppppppppppppppppppppaasq987623<:-=&&&&&&&&&&&&&&&&&",
"&&&&&&&&&&=->136489qiaddggggfffvnmmBBAZZZZZCVMwwwwwwwejCCZZZZZBmmnnvcfffgggggggggggggggggggggggggggggggggggggggggggggggggggggggggggggggggggggggggggggggggggggggggggggggggggggggggggggggggggggggggggggggggggggggggggggggggggggggggddaiq984631>-=&&&&&&&&&&&&&&&&&",
"&&&&&&&&&&=->12479qiadgfccvvvnnbBBBAAZZZZVVVZhewwwwwwetAVVVZZZZZBBmmbnnvvvcccccccccccccccccccccccccccccccccccccccccccccccccccccccccccccccccccccccccccccccccccccccccccccccccccccccccccccccccccccccccccccccccccccccccccccccccccccccfgdaiq97421>-=&&&&&&&&&&&&&&&&&",
"&&&&&&&&&&*,>35480sadgvnbmmmmmBBBAZCZZZVVVVVSyytywwytyrDVVVVVZZZZABBBBmmmmmbbbbbbbbbbbbbbbbbbbbbbbbbbbbbbbbbbbbbbbbbbbbbbbbbbbbbbbbbbbbbbbbbbbbbbbbbbbbbbbbbbbbbbbbbbbbbbbbbbbbbbbbbbbbbbbbbbbbbbbbbbbbbbbbbbbbbbbbbbbbbbbbbbbbbbnvgdas08453>,*&&&&&&&&&&&&&&&&&",
"&&&&&&&&&&*,<3679qapgvbBBBBBBAAAZVCZZCVVVVVVMyMSkwwkSDyjVVVVVVCZZVZAAAABBBBBBBBBBBBB                                                                                                                                           BBBbvgpaq9763<,*&&&&&&&&&&&&&&&&&",
"&&&&&&&&&&*,<2480sadfnBVVVVVVVVVVCCVVVVVVVVZhyAVMrrjVZttAVVVVVVVZZCVVVVVVVVVVVVVVVVV                                                                                                                                           VVVBnfdas0842<,*&&&&&&&&&&&&&&&&&",
"&&&&&&&&&&*;<2480ipgcbBVVVVVVVVVCZVVVVVVVVVAywhjtwwtjhrrSVVVVVVVVZZCVVVVVVVVVVVVVVVVVVVVVVVVVVVVVVVVVVVVVVVVVVVVVVVVVVVVVVVVVVVVVVVVVVVVVVVVVVVVVVVVVVVVVVVVVVVVVVVVVVVVVVVVVVVVVVVVVVVVVVVVVVVVVVVVVVVVVVVVVVVVVVVVVVVVVVVVVVVVVVBbcgpi0842<;*&&&&&&&&&&&&&&&&&",
"&&&&&&&&&&*;<2480ipgcbBVVVVVVVVVCVVVVVVVVVVZkyewwwwwwerhSVVVVVVVVVVCVVVVVVVVVVVVVVVVVVVVVVVVVVVVVVVVVVVVVVVVVVVVVVVVVVVVVVVVVVVVVVVVVVVVVVVVVVVVVVVVVVVVVVVVVVVVVVVVVVVVVVVVVVVVVVVVVVVVVVVVVVVVVVVVVVVVVVVVVVVVVVVVVVVVVVVVVVVVVVBbcgpi0842<;*&&&&&&&&&&&&&&&&&",
"&&&&&&&&&&*;<2480ipgcbBVVVVVVVZDSCVVVVVVVVVVZMtwewweetjZVVVVVVVVVVCSDZVVVVVVVVVVVVVVVVVVVVVVVVVVVVVVVVVVVVVVVVVVVVVVVVVVVVVVVVVVVVVVVVVVVVVVVVVVVVVVVVVVVVVVVVVVVVVVVVVVVVVVVVVVVVVVVVVVVVVVVVVVVVVVVVVVVVVVVVVVVVVVVVVVVVVVVVVVVVBbcgpi0842<;*&&&&&&&&&&&&&&&&&",
"&&&&&&&&&&*;<2480ipgcbBVVVVVVVMttMAVVVVVVVVVVVSkywwrhDVVVVVVVVVVVAMhtMVVVVVVVVVVVVVVVVVVVVVVVVVVVVVVVVVVVVVVVVVVVVVVVVVVVVVVVVVVVVVVVVVVVVVVVVVVVVVVVVVVVVVVVVVVVVVVVVVVVVVVVVVVVVVVVVVVVVVVVVVVVVVVVVVVVVVVVVVVVVVVVVVVVVVVVVVVVVBbcgpi0842<;*&&&&&&&&&&&&&&&&&",
"&&&&&&&&&&*;<2480ipgcmBVVVVVVStwerhMAVVVVVVVVVVZMtyjAVVVVVVVVVVZDhyewhSVVVVVVVVVVVVVVVN$+ooOOOOOOOOOOOOOOOOOOOo@#FVVVVVVVVx#XOOOO@uVVVVVVVVVVVVx#XOOXouZVVVVVVVVZF#@oOOOOOOOOOOOOOOOoo+uSVVVVVVS%OOOOOO$SVVVVVVVVVVVVVx@OOOOOuVVVVBbcgpi0842<;*&&&&&&&&&&&&&&&&&",
"&&&&&&&&&&*;<2480ipgcmBVVVVVCjrwweeyhDVVVVVVVVVVVxlAVVVVVVVVVVSkywewwrjCVVVVVVVVVVVVVZ$                          ouVVVVVVVVx#     ouVVVVVVVVVVz#    ouZVVVVVVVVVuo     .                $SVVVVVVN%X     $AVVVVVVVVVVVz@  . .uVVVVVBbcgpi0842<;*&&&&&&&&&&&&&&&&&",
"&&&&&&&&&&*;<2480ipgcmBVVVVVSywrwwwwehAVVVVVVVVVVxlAVVVVVVVVVZkwewwwwwtSVVVVVVVVVVVVVlo ..                    ... +AVVVVVVVVz# ... ouVVVVVVVVz#  . ouZVVVVVVVVVN#  .                  . oxVVVVVVVS%X ..  $AVVVVVVVVVz+... .uCVVVVVBbcgpi0842<;*&&&&&&&&&&&&&&&&&",
"&&&&&&&&&&*;<2480ipgcmBVVVVVMrwrrrrwehZVVVVVVVVVZxxAVVVVVVVVVVjewwrwwwrMVVVVVVVVVVVVV$....X@+++++++++++++++++@ .. @xVVVVVVVVVz%  .. ouVVVVVVz% .. ouCVVVVVVVVVVl+ . o###############@.. .FCVVVVVVVS%X ..  $AVVVVVVVN+... XuVVVVVVVBbcgpi0842<;*&&&&&&&&&&&&&&&&&",
"&&&&&&&&&&*;<2480ipgvmBVVVVVDywrrrrwwjVVVVVVVVVVVzxAVVVVVVVVVVMrwrwwweyMVVVVVVVVVVVVV%....olAAAAAAAAAAAAAAAASu .. olVVVVVVVVVVN%  X. ouVVVVN%  . ouZVVVVVVVVVVVF@ . %NVZZZZZZZZZZZZV$O   uZVVVVVVVVS%X ..  uAVVVVVN+..X XuCVVVVVVVBbcgpi0842<;*&&&&&&&&&&&&&&&&&",
"&&&&&&&&&&*;<2480ipgvmBVVVVZNhwrrrrwrDVVVVVVVVVVVxlZVVVVVVVVVVDyerrrrwtSCVVVVVVVVVVVV#... oxVVVVVVVVVVVVVVVVZu  . oFVVVVVVVVVVVN%  .. ouVVN$  . ouCVVVVVVVVVVVVF@ . $NVVVVVVVVVVVVVV$o@%uzVVVVVVVVVVN%X .. .uZVVVN#... XuCVVVVVVVVBbcgpi0842<;*&&&&&&&&&&&&&&&&&",
"&&&&&&&&&&*;<2480ipgvmAVVVVNSjwewrwetSVVVVVVVVVVx$$xVVVVVVVVVVShewwwwekZZVVVVVVVVVVVV#... oxVVVVVVVVVVVVVVVVZu  . oFVVVVVVVVVVVVN$  .. ouN$  . ouVVVVVVVVVVVVVVF@ . %NVVVVVVVVVVVVVVxxAVVVVVVVVVVVVVVS%X .. XuZVS#... XuCVVVVVVVVVBbcgpi0842<;*&&&&&&&&&&&&&&&&&",
"&&&&&&&&&&*;<2480ipgvmAVVVCNADyerryyhNVVVVVVVVAF#XX#FAVVVVVVVVNhyyrrwyMVZVVVVVVVVVVVV#....oxVVVVVVVVVVVVVVVVZu  . oFVVVVVVVVVVVVVN$  .. o+O . ouCVVVVVVVVVVVVVVF@ . $NVVVVVVVVVVVVVVVVVVVVVVVVVVVVVVVVN%X... OFA%... XuCVVVVVVVVVVBbcgpi0842<;*&&&&&&&&&&&&&&&&&",
"&&&&&&&&&&*;<2480ipgvmAVVVAzNSjhkjjMllzSZVVVVzu@.XX.@uzVVVVZSzllMMjkhjAVZVVVVVVVVVVVV#....oxVVVVVVVVVVVVVVVVZu  . oFVVVVVVVVVVVVVVS$X ... .. ouVVVVVVVVVVVVVVVVF@ . +uFuuuuuuuuuuuuuFFzZVVVVVVVVVVVVVVVN%X... o+X.X XuCVVVVVVVVVVVBbcgpi0842<;*&&&&&&&&&&&&&&&&&",
"&&&&&&&&&&*;<2480ipgvmAVVVNzNAZVVVVVZxFlxNNNl%O.OOOO.O%FNNNxlFxAVVVVVZVVZVVVVVVVVVVVV#....oxVVVVVVVVVVVVVVVVZu  . oFVVVVVVVVVVVVVVVAuX .... ouVVVVVVVVVVVVVVVVVl+ ..                  O#lCVVVVVVVVVVVVVVS%X...  .. XuZVVVVVVVVVVVVBbcgpi0842<;*&&&&&&&&&&&&&&&&&",
"&&&&&&&&&&*;<2480ipgvmAVVVzxNSZVVVVVVVNxlllF+.XOOOOOOX.+FlllxNVVVVVVVVVVZVVVVVVVVVVVV#... oxVVVVVVVVVVVVVVVVZu  . oFVVVVVVVVVVVVVVVVAu. ... +lVVVVVVVVVVVVVVVVVN% ............. .....   +zVVVVVVVVVVVVVVVN%X .. . XuZVVVVVVVVVVVVVBbcgpi0842<;*&&&&&&&&&&&&&&&&&",
"&&&&&&&&&&*;<2480ipgvmAVVVzxzNAZVVVVVVVVNNSFOXOOOOXOOOXOFNSNVVVVVVVVVVVVVVVVVVVVVVVVV#... oxVVVVVVVVVVVVVVVVZu  . oFVVVVVVVVVVVVVVVVN% ..... +lVVVVVVVVVVVVVVVVVF@                    .  uZVVVVVVVVVVVVVVVS%X... OuZVVVVVVVVVVVVVVBbcgpi0842<;*&&&&&&&&&&&&&&&&&",
"&&&&&&&&&&*;<2480ipgvmAVVVxlzNAZVVVVVVVVVVVA%XOOOOOOOOX%AVVVVVVVVVVVVVVVVVVVVVVVVVVVV#....oxVVVVVVVVVVVVVVVVZu  . oFVVVVVVVVVVVVVVVN%  ..  .. +lVVVVVVVVVVVVVVVVVl$+@oooooooooooooooO... $SVVVVVVVVVVVVVVVVz@ .. #AVVVVVVVVVVVVVVVBbcgpi0842<;*&&&&&&&&&&&&&&&&&",
"&&&&&&&&&&*;<2480ipgvmAVVVxlxNSAVVVVVVVVVVVVuXOOOOOOOO.uVVVVVVVVVVVVVVVVVVVVVVVVVVVVV#....oxVVVVVVVVVVVVVVVVZu  . oFVVVVVVVVVVVVVVN%  . Oo ... @FVVVVVVVVVVVVVVVVVCANNzzzzzzzzzzzzzNuo . $NVVVVVVVVVVVVVVVVN@ .. %AVVVVVVVVVVVVVVVBbcgpi0842<;*&&&&&&&&&&&&&&&&&",
"&&&&&&&&&&*;<2480ipgvmAVVVzllzNAZVVVVVVVVVVVz@XOOOOOOXozVVVVVVVVVVVVVVVVZVVVVVVVVVVVV#....oxVVVVVVVVVVVVVVVVZu  . oFVVVVVVVVVVVVVN$  . oul# ... @FVVVVVVVVVVVVVVVVVVVVVVVVVVVVVVVVVVF@ . %NVVVVVVVVVVVVVVVVN@... %AVVVVVVVVVVVVVVVBbcgpi0842<;*&&&&&&&&&&&&&&&&&",
"&&&&&&&&&&*;<2480ipgvmAVVVNllxNSAZVVVVVVVVVVA%.OOOOOO.%AVVVVVVVVVVVVVVVVZVVVVVVVVVVVV#... oxVVVVVVVVVVVVVVVVZu  . oFVVVVVVVVVVVVN$  . O$ZVx+ ... @FVVVVVVVVVVVVVZNFlAVVVVVVVVVVVVVVVFo . %NVVVVVVVVVVVVVVVVN@ .. %AVVVVVVVVVVVVVVVBbcgpi0842<;*&&&&&&&&&&&&&&&&&",
"&&&&&&&&&&*;<2480ipgvmAVVVAxllzNAZVVVVVVVVVVVF........FVVVVVVVVVVVVVVVVVZVVVVVVVVVVVV#... oxVVVVVVVVVVVVVVVVZu  X oFVVVVVVVVVVVN$  . X$AVVVx+ ... ouVVVVVVVVVVz$+o %NVVVVVVVVVVVVVVVFo . %NVVVVVVVVVVVVVVVVN@... %AVVVVVVVVVVVVVVVBbcgpi0842<;*&&&&&&&&&&&&&&&&&",
"&&&&&&&&&&*;<2480ipgvmAVVVZxllxzNAZVVVVVVVVVAF%%%%%%%%FNVVVVVVVVVVVVVVVVZVVVVVVVVVVVV#....oxZZZZZZZZZZZZZZZZAu  . olVVVVVVVVVVN$  . X%NVVVVVx+ ... ouCVVVVVVVVF@   %zVZZZZZZZZZZZZZVFo . %NVVVVVVVVVVVVVVVVN@... %AVVVVVVVVVVVVVVVBbcgpi0842<;*&&&&&&&&&&&&&&&&&",
"&&&&&&&&&&*;<2480ipgvmAVVVVzlllzNSAZVVVVVVVNFlzNNNNNNzxFzVVVVVVVVVVVVVVVZVVVVVVVVVVVV$....X+#################@ .. olVVVVVVVVVN$  ...%NVVVVVVVx+  .. ouCVVVVVVVl@ . o################+X . $NVVVVVVVVVVVVVVVVN@ .. %AVVVVVVVVVVVVVVVBbcgpi0842<;*&&&&&&&&&&&&&&&&&",
"&&&&&&&&&&*;<2480ipgvmAVVVVSlllxzNZAVVVVVVSFxAVVVVVVVVZzFzVVVVVVVVVVVVVZZVVVVVVVVVVVVFO ..                    ... @NVVVVVVVVS$  .  #zVVVVVVVVVx+  .  ouAVVVVVVz#  .                   .  uAVVVVVVVVVVVVVVVVN@. . %AVVVVVVVVVVVVVVVBbcgpi0842<;*&&&&&&&&&&&&&&&&&",
"&&&&&&&&&&*;<2480ipgvmBVVVVZxlllxzNAAVVVVSFxVVVVVVVVVVVVzFNVVVVVVVVVVVVZCVVVVVVVVVVVVN# . .....................  O$VVVVVVVVS$  .  +xVVVVVVVVVVVx+ ... O$AVVVVVC$X ..................... @xVVVVVVVVVVVVVVVVVN@... %AVVVVVVVVVVVVVVVBbcgpi0842<;*&&&&&&&&&&&&&&&&&",
"&&&&&&&&&&*;<2480ipgvmBVVVVVNllllxzNAAVVVFlZVVVVVVVVVVVVVlFZVVVVVVVVVVCZVVVVVVVVVVVVVVx#O............... ......Xo$NVVVVVVVS$. .. +xVVVVVVVVVVVVVx#  .. X$NVVVVVN$oX............ ....  O+FZVVVVVVVVVVVVVVVVVN@ .. %AVVVVVVVVVVVVVVVBbcgpi0842<;*&&&&&&&&&&&&&&&&&",
"&&&&&&&&&&*;<2480ipgcmBVVVVVAxllllxzNAZVzFNVVVVVVVVVVVVVVAFxVVVVVVVVVVACVVVVVVVVVVVVVVVSF$%#+##+##+#++##+##+##%uxZVVVVVVVVl#+##+#FVVVVVVVVVVVVVVVl%+##++#FVVVVVVZxu%#+#####++##++++##$FNVVVVVVVVVVVVVVVVVVVS%++#+$ZVVVVVVVVVVVVVVVBbcgpi0842<;*&&&&&&&&&&&&&&&&&",
"&&&&&&&&&&*;<2480ipgcmBVVVVVCNlllllxNNNjthZVVVVVVVVVVVVVVVktjSVVVVVVVZZVVVVVVVVVVVVVVVVVVVVVVVVVVVVVVVVVVVVVVVVVVVVVVVVVVVVVVVVVVVVVVVVVVVVVVVVVVVVVVVVVVVVVVVVVVVVVVVVVVVVVVVVVVVVVVVVVVVVVVVVVVVVVVVVVVVVVVVVVVVVVVVVVVVVVVVVVVVBbcgpi0842<;*&&&&&&&&&&&&&&&&&",
"&&&&&&&&&&*;<2480ipgcmBVVVVVVAzllllllhtrwrjVVVVVVVVVVVVVVMyertkDZVVVVZCVVVVVVVVVVVVVVVVVVVVVVVVVVVVVVVVVVVVVVVVVVVVVVVVVVVVVVVVVVVVVVVVVVVVVVVVVVVVVVVVVVVVVVVVVVVVVVVVVVVVVVVVVVVVVVVVVVVVVVVVVVVVVVVVVVVVVVVVVVVVVVVVVVVVVVVVVVVBbcgpi0842<;*&&&&&&&&&&&&&&&&&",
"&&&&&&&&&&*;<2480ipgcmBVVVVVVVNxlllhyrwrweyMVVVVVVVVVVVVDtwwwwryjVVVZZVVVVVVVVVVVVVVVVVVVVVVVVVVVVVVVVVVVVVVVVVVVVVVVVVVVVVVVVVVVVVVVVVVVVVVVVVVVVVVVVVVVVVVVVVVVVVVVVVVVVVVVVVVVVVVVVVVVVVVVVVVVVVVVVVVVVVVVVVVVVVVVVVVVVVVVVVVVVBbcgpi0842<;*&&&&&&&&&&&&&&&&&",
"&&&&&&&&&&*;<2480ipgcbBVVVVVVVCNlllhwwwwwweyMZVVVVVVVVVDtewwwwwehVVZZVVVVVVVVVVVVVVVVVVVVVVVVVVVVVVVVVVVVVVVVVVVVVVVVVVVVVVVVVVVVVVVVVVVVVVVVVVVVVVVVVVVVVVVVVVVVVVVVVVVVVVVVVVVVVVVVVVVVVVVVVVVVVVVVVVVVVVVVVVVVVVVVVVVVVVVVVVVVVBbcgpi0842<;*&&&&&&&&&&&&&&&&&",
"&&&&&&&&&&*,<2480sadfnBVVVVVVVVZzlxhrwrrwwretAAAZVVVVVVherrwwwwwhCZACVVVVVVVVVVVVVV                                                                                                                                           VVVVBnfdas0842<,*&&&&&&&&&&&&&&&&&",
"&&&&&&&&&&*,<3679qapgvbBBBAAAAZCAzlhrrrrrrwwhNSSAAAZZZVjrrrwwwwrkAAZCZAAAABBBBBBBBB                                                                                                                                           BBBBbvgpaq9763<,*&&&&&&&&&&&&&&&&&",
"&&&&&&&&&&*,>35480sadgvnmmmmBBBAZAzFywrwrwwylzzNNNSAAAAStewwwwwrjZZCABBBBmmmmbbbbbbbbbbbbbbbbbbbbbbbbbbbbbbbbbbbbbbbbbbbbbbbbbbbbbbbbbbbbbbbbbbbbbbbbbbbbbbbbbbbbbbbbbbbbbbbbbbbbbbbbbbbbbbbbbbbbbbbbbbbbbbbbbbbbbbbbbbbbbbbbbbbbnvgdas08453>,*&&&&&&&&&&&&&&&&&",
"&&&&&&&&&&=->12479qiadgfvvvnnbmBAZZNtwwwrwrhllxxzzNNNNNAMrwwwwwtDCZBBmmnnvvvcccccccccccccccccccccccccccccccccccccccccccccccccccccccccccccccccccccccccccccccccccccccccccccccccccccccccccccccccccccccccccccccccccccccccccccccccccccfgdaiq97421>-=&&&&&&&&&&&&&&&&&",
"&&&&&&&&&&=->136489qiaddggffcvnmmBZCMtrwwetllllllxxxzzzzzhwwwrhDCABmbnvcffgggggggggggggggggggggggggggggggggggggggggggggggggggggggggggggggggggggggggggggggggggggggggggggggggggggggggggggggggggggggggggggggggggggggggggggggggggggggddaiq984631>-=&&&&&&&&&&&&&&&&&",
"&&&&&&&&&&=-:<326789qsaappdddgfvnmBACSjtrrFlllllllllllllxlywtjSCAmnvcfggddpppppppppppppppppppppppppppppppppppppppppppppppppppppppppppppppppppppppppppppppppppppppppppppppppppppppppppppppppppppppppppppppppppppppppppppppppppppppaasq987623<:-=&&&&&&&&&&&&&&&&&",
"&&&&&&&&&&=-;>13567890ssiiiaapdgfvnmBZCSjklllllllllllllllljjSCAmnvfgddpaaiiiiiiiiiiiiiiiiiiiiiiiiiiiiiiiiiiiiiiiiiiiiiiiiiiiiiiiiiiiiiiiiiiiiiiiiiiiiiiiiiiiiiiiiiiiiiiiiiiiiiiiiiiiiiiiiiiiiiiiiiiiiiiiiiiiiiiiiiiiiiiiiiiiiiiiiss09876531>;-=&&&&&&&&&&&&&&&&&",
"&&&&&&&&&&=*,><13564789000qqsiipdgfvbmBZVAANzxllllllllxzNAZVABnvfgdpaissqq0000000000000000000000000000000000000000000000000000000000000000000000000000000000000000000000000000000000000000000000000000000000000000000000000000000098746531<>,*=&&&&&&&&&&&&&&&&&",
"&&&&&&&&&&=*-:><132644788888990siadgfvnmBACVCANzzxzzzNZCVZAmnvfgpaisq09988888888888888888888888888888888888888888888888888888888888888888888888888888888888888888888888888888888888888888888888888888888888888888888888888888888887446231<>:-*=&&&&&&&&&&&&&&&&&",
"&&&&&&&&&&&*-,:><1332564444447799qiapgfcnbmBAAZCCVVCCZZABmvcgdpasq9987744444444444444444444444444444444444444444444444444444444444444444444444444444444444444444444444444444444444444444444444444444444444444444444444444444444444652331<>:,-*&&&&&&&&&&&&&&&&&&",
"&&&&&&&&&&&=*-,:>><11332222225567790qiapggcvnnnbbmbbnnnvffgdaiq98744655222222222222222222222222222222222222222222222222222222222222222222222222222222222222222222222222222222222222222222222222222222222222222222222222222222222223311<>>:,-*=&&&&&&&&&&&&&&&&&&",
"&&&&&&&&&&&=**--,;:>>><<<<<<<1133664780qsapddggggffggdddpais98746233111<<<<<<<<<<<<<<<<<<<<<<<<<<<<<<<<<<<<<<<<<<<<<<<<<<<<<<<<<<<<<<<<<<<<<<<<<<<<<<<<<<<<<<<<<<<<<<<<<<<<<<<<<<<<<<<<<<<<<<<<<<<<<<<<<<<<<<<<<<<<<<<<<<<<<<<<<<<<>>>:;,--**=&&&&&&&&&&&&&&&&&&",
"&&&&&&&&&&&&==***----,,,;;;;;;::>><13264789qqssiiaaaisqq09846531<>>:::;;;;;;;;;;;;;;;;;;;;;;;;;;;;;;;;;;;;;;;;;;;;;;;;;;;;;;;;;;;;;;;;;;;;;;;;;;;;;;;;;;;;;;;;;;;;;;;;;;;;;;;;;;;;;;;;;;;;;;;;;;;;;;;;;;;;;;;;;;;;;;;;;;;;;;;;;;;,,,----***==&&&&&&&&&&&&&&&&&&&",
"&&&&&&&&&&&&&&&======*************-,;:><32564478888887746531<>>;,-******************************************************************************************************************************************************************======&&&&&&&&&&&&&&&&&&&&&&",
"&&&&&&&&&&&&&&&&&&&&&&&&&&&&&&&&&&&=**-,;>><133255552331<>>;,-**=&&&&&&&&&&&&&&&&&&&&&&&&&&&&&&&&&&&&&&&&&&&&&&&&&&&&&&&&&&&&&&&&&&&&&&&&&&&&&&&&&&&&&&&&&&&&&&&&&&&&&&&&&&&&&&&&&&&&&&&&&&&&&&&&&&&&&&&&&&&&&&&&&&&&&&&&&&&&&&&&&&&&&&&&&&&&&&&&&&&&&&&&&&&&&&&",
"&&&&&&&&&&&&&&&&&&&&&&&&&&&&&&&&&&&&&==**--,,:>>>>>>>>:,,--**==&&&&&&&&&&&&&&&&&&&&&&&&&&&&&&&&&&&&&&&&&&&&&&&&&&&&&&&&&&&&&&&&&&&&&&&&&&&&&&&&&&&&&&&&&&&&&&&&&&&&&&&&&&&&&&&&&&&&&&&&&&&&&&&&&&&&&&&&&&&&&&&&&&&&&&&&&&&&&&&&&&&&&&&&&&&&&&&&&&&&&&&&&&&&&&&&&",
"&&&&&&&&&&&&&&&&&&&&&&&&&&&&&&&&&&&&&&&&&==****------****===&&&&&&&&&&&&&&&&&&&&&&&&&&&&&&&&&&&&&&&&&&&&&&&&&&&&&&&&&&&&&&&&&&&&&&&&&&&&&&&&&&&&&&&&&&&&&&&&&&&&&&&&&&&&&&&&&&&&&&&&&&&&&&&&&&&&&&&&&&&&&&&&&&&&&&&&&&&&&&&&&&&&&&&&&&&&&&&&&&&&&&&&&&&&&&&&&&&&",
"&&&&&&&&&&&&&&&&&&&&&&&&&&&&&&&&&&&&&&&&&&&&&&&&&&&&&&&&&&&&&&&&&&&&&&&&&&&&&&&&&&&&&&&&&&&&&&&&&&&&&&&&&&&&&&&&&&&&&&&&&&&&&&&&&&&&&&&&&&&&&&&&&&&&&&&&&&&&&&&&&&&&&&&&&&&&&&&&&&&&&&&&&&&&&&&&&&&&&&&&&&&&&&&&&&&&&&&&&&&&&&&&&&&&&&&&&&&&&&&&&&&&&&&&&&&&&&&&"
};
