/* XPM */
static char * oxsygraphic_xpm[] = {
"256 64 91 1",
" 	c #FFFFFF",
".	c #10073A",
"+	c #110A3C",
"@	c #0B0C41",
"#	c #0D0D42",
"$	c #120C3D",
"%	c #0E0F44",
"&	c #140E3F",
"*	c #0F1045",
"=	c #101045",
"-	c #091346",
";	c #0F1241",
">	c #111146",
",	c #0A1447",
"'	c #0C1548",
")	c #0D1649",
"!	c #0E164A",
"~	c #0F174B",
"{	c #081A4D",
"]	c #11184C",
"^	c #12194D",
"/	c #13194E",
"(	c #0B1C4F",
"_	c #141A4F",
":	c #0C1D50",
"<	c #131C4A",
"[	c #0E1D51",
"}	c #0F1E52",
"|	c #151D4C",
"1	c #101F52",
"2	c #112053",
"3	c #132154",
"4	c #142155",
"5	c #0B2456",
"6	c #152256",
"7	c #0D2558",
"8	c #162357",
"9	c #10275A",
"0	c #12285B",
"a	c #14295D",
"b	c #0B2D5F",
"c	c #152A5E",
"d	c #0D2E61",
"e	c #172C60",
"f	c #103062",
"g	c #5566FE",
"h	c #5F65FE",
"i	c #4E6BFF",
"j	c #466FFF",
"k	c #4772FE",
"l	c #4077FF",
"m	c #437CFF",
"n	c #A262F7",
"o	c #9765FC",
"p	c #A961F9",
"q	c #4580FD",
"r	c #2D88FF",
"s	c #3B84FF",
"t	c #AE62F6",
"u	c #B661F8",
"v	c #BA62F4",
"w	c #C161F6",
"x	c #3E89FE",
"y	c #CC5FF4",
"z	c #348EFF",
"A	c #D35EF6",
"B	c #D860F3",
"C	c #DF5EF5",
"D	c #428FFD",
"E	c #3693FF",
"F	c #E35FF1",
"G	c #289BFF",
"H	c #3797FD",
"I	c #13A5FF",
"J	c #3A9CFB",
"K	c #2DA1FF",
"L	c #18AAFF",
"M	c #30A7FE",
"N	c #1EB1FF",
"O	c #32ACFC",
"P	c #20B6FE",
"Q	c #22BCFD",
"R	c #14C1FE",
"S	c #00D3FE",
"T	c #00DBFF",
"U	c #00DFFC",
"V	c #2AD6FB",
"W	c #06E3FF",
"X	c #00E6FC",
"Y	c #03E9FF",
"Z	c #00EFFD",
"                                                                                                                                                                                                                                                                ",
"                                                 fffffffffff                                                                                                                                                                                                    ",
"                                                fffffffffffff                                                                                                                                                                                                   ",
"                                          GG    fffffffffffff    WX                                                                                                                                                                                             ",
"                                        EEHG   dddddddddddddde   UWXY                                                                                                                                                                                           ",
"                                      xxzEE    eeeeeeeeeeeeeee    UWXY                                                                                                                                                                                          ",
"                                     qsrxzE   ddddd  ddd  dddd    UUWXYZ                                                                                                                                                                                        ",
"                                    mmqsrx    bbbbb  bbb  bbbbb   TUUWXYZ                                                                                                                                                                                       ",
"                                  kklmmqsr   cccccc  ccb  ccccc    TUUWXYZZ                                                                                                                                                                                     ",
"                                 ijkklmmqs   bccccccccccbcccccc    VTUUWXYZZ                                                                                                                                                                                    ",
"                                ggijkklmm     abaaaaaaaaaaaaaa      VTUUWXYZZ                                       aa0aac                                                                                                                                      ",
"                               ggggijkkl        000000000000a       SVTUUWXYZZ                            000    000000000000     000                                                                                                                           ",
"                              hhggggijk           000000000                XYZ                           00000  000000000000000  00000    6666666665          6666666666    666666666666666666666666666   666666666            666666666                        ",
"                              h                     00000                                                00000 0000000000000000  0000      5555555554        4555555555    5555555555555555555555555555    555555555          455555555                         ",
"                                                     09                                                   999   99999999999999    997      5444444444       3444444444     4444444444444444444444444444     444444444        4444444445                         ",
"                                                                                                              7  777       77   7           3333333333     4333333333      3333333333333333333333333333      333333333       333333333                          ",
"                                 777                  7                 777777777                                                            5333333333    333333333       3333333333333333333333333333       333333333     333333333                           ",
"                           777777777                  7                 7777777777                         77  7                  77          3333333333  333333333}       3333333333333333333333333333       }33333333    333333333                            ",
"                          77777777777                                   7777777777                        7777   7           7   6776          }}}}}}}}}}}}}}}}}}}}        }}}}}}}}                            }}}}}}}}}  3}}}}}}}}                             ",
"                          66666666665                 6                 66666666667                       66666                 66666           }}}}}}}}}}}}}}}}}}         }}}}}}}                              }}}}}}}}}[}}}}}}}}                              ",
"                          55555555555                                   55555555555                      55555    5             55555            }}}}}}}}}}}}}}}}          }}}}}}}                               }}}}}}}}}}}}}}}}                               ",
"                         544444444444                                  5444444444443                     44444      4     4      44444           [[[[[[[[[[[[[[[           [[[[[[[    (((((((((((((((((           [[[[[[[[[[[[[[[                               ",
"                         333333333333                334               3333333333333                     33333                   33333            (((((((((((((            (((((((   [(((((((((((((((((            (((((((((((((                                ",
"                         3333333333333              33333              3333333333333                     3333        3           33333             ___________             _______   (_________________             ___________                                 ",
"                        33333333333333             3333333             3333333333333                     3333          3         33333             {((((((((((             (((((((   ((((((((((((((((((             <(((((((((                                  ",
"                        }}}}}}}}}}}}}}           }}}}}}}}}}3          }}}}}}}}}}}}}}3                    }}}}                    }}}}}             ////////////            ///////   //////////////////              ////////                                   ",
"                        }}}}}}}}}}}}}}          }}}}}}}}}}}}}       }  }}}}}}}}}}}}}}                    }}}}        }           }}}}}            ]]]]]]]]]]]]]/           ]]]]]]]   ]]]]]]]]]]]]]]]]]]               ]]]]]]]                                   ",
"                        [[[[[[[[[[[[[[  [     }[[[[[[[[[[[[[[}      [   [[[[[[[[[[[[[                    }}}}}            [      }}}}}           ]]]]]]]]]]]]]]]           ]]]]]]]   ~]]]]]]]]]]]]]]]]]               ]]]]]]]                                   ",
"                        [[[[[[[[[[[[[     [  ([[[[[[[[[[[[[[[[[|  [      [[[[[[[[[[[                     [[[[[                   [[[[[          ~]]]]]]]]]]]]]]]]                               ]]]]]]]               ]]]]]]~                                   ",
"                         ((((((((((         ((((((((((((((((((((          (((((((((                      [(((((   _         (   (((((           ~~~~~~~~~~~~~~~~~~                              ~~~~~~~               ~~~~~~!                                   ",
"                          (_______           ___________________           ______(                        ((((                  (((((          !!!!!!!!! )!!!!!!!!!                            !!!!!!!!               !!!!!!!                                   ",
"                           ((((((            ((((((((((((((((((/            ((((/                         /((                    (((          )))))))))   ))))))))))       ))))))))))))))))))))))))))))               )))))))                                   ",
"                            {///             //////////////////              {/     R                      /   /               /  (/         )))))))))     )))))))))       ))))))))))))))))))))))))))))               )))))))                                   ",
"                       w      ]               ]]]]]]]]]]]]]]]]/                    QR                                                       ))))))))))      )))))))))      ))))))))))))))))))))))))))))               )))))))                                   ",
"                        ww                    ]]]]]]]]]]]]]]]]]                   PQQ                      {     ]]]      ]]]{     {        -------->        ---------     ----------------------------               -------                                   ",
"                        www                   {]]]]]]]]]]]]]]]                   NPPQ                     ]]]~  ]]]]]]]]]]]]]]]  ]]]]      ---------         ----------    ----------------------------               -------                                   ",
"                        ywww                   ~~~~~~~~~~~~~~~                  LONPP                    ~~~~~ ~~~~~~~~~~~~~~~~] ~~~~~    ---------           ;--------=   ---------------------------                -------                                   ",
"                        yywww                  ~!!!!!!!!!!!!!!                 KMLONP                    !!!!!  !!!!!!!!!!!!!!~  !!!!                                                                                                                           ",
"                        yyywww                 ))))))))))))))                 JKIMLON                     !!!     )!!!!!!!!!!     )!!                                                                                                                           ",
"                        Byyywww                 )))))))))))))                 GGKIML                                 !)))!                                                                                                                                      ",
"                         Ayyyww                 )))))))))))))                 HGGKIM                                                                                                                                                                            ",
"                         BAyyyw                                               EHGGKI                                                                                                                                                                            ",
"                         BBAyyy               --             --               EEHGGK                                                                                                                                                                            ",
"                          BBAy                                                zEEHG                                                       >-                                                                               >-                                   ",
"                          CBBA               =                 =               zEEH                                                       >-                                                                               >-                                   ",
"                          FCBB   %%%%%%%%%%                       %%%%%%%%%    xzE                                                        --                                                                               -;                                   ",
"                           FCB   %%%%%%%%%%%%                   ;%%%%%%%%%%%   xxD                                   -----                ==               - ----              -----             > >---               %==% =-                                   ",
"                            F    %%%%%%%%%%%%                   %%%%%%%%%%%%   sr                                   >>   --               ==               >>--=>             >>-->>>            >>> =>-             ==;====-                                   ",
"                            F    #############                 #############    s                                  -%     --              %;               =-                ==     =%           =-    ==           %%    %%%                                   ",
"                                #############$                 #############                                       =-     ==              %;               =%                ==     ==           =     ==           %      %%                                   ",
"                                $$$$$$$$$$$$$$                $$$$$$$$$$$$$$&                                      %%%%%%%%%              %;               %                 %      %%           %     %%           %      %%                                   ",
"                                ###############               ###############                                      %%                     %%               %                 %%     %%           %     %%           %      %#                                   ",
"                                ###############              ################                                      %%                     %%               %                 %%     %%           %     ##           %%     %#                                   ",
"                                ++++++++++++++++             ++++++++++++++++                                       %%   #%               #&               %                  %&  &%%            %     ##            ##  %###                                   ",
"                                 @++++++++++++++             ++++++++++++++#                                         #####                #                #                   ####&             #     ##             #### #%                                   ",
"                                  ..............            ...............                                                                                                                                                                                     ",
"                                    ...........               ...........                                                                                                                                                                                       ",
"                                     ........       ttppn      .........                                                                                                                                                                                        ",
"                                      ......      vuuttppnn      .....                                                                                                                                                                                          ",
"                                        ..      wwwvuuttppnn       ..                                                                                                                                                                                           ",
"                                               yywwwvuuttppnno                                                                                                                                                                                                  ",
"                                              Ayyywwwvuuttppnnn                                                                                                                                                                                                 ",
"                                                 yywwwvuutpp                                                                                                                                                                                                    ",
"                                                                                                                                                                                                                                                                "};
