/* XPM */
static const char * team_logo_xpm[] = {
"256 64 16 1",
" 	c None",
".	c #050400",
"+	c #221815",
"@	c #2E2E2B",
"#	c #5C5D5A",
"$	c #0573BE",
"%	c #0081BE",
"&	c #838380",
"*	c #3F98CB",
"=	c #A4A5A2",
"-	c #76B3D7",
";	c #9ACCE5",
">	c #C7C9C6",
",	c #CAE1F3",
"'	c #E8EBEA",
")	c #FCFFFB",
"))))))))))))))))))))))&..+..=))))))))))))))))))))))))))))))))))))))))))))))))))))))))))))))))))))))))))))))))))))))))))))))))))))))))))))))))))))))))))))))))))))))))))))))))))))))))))))))))))))))))))))))))))))))))))),;-;)))));;;')))))))))))))))))))))))))))",
")))))))))))))))))))>++&)))))+++=)))))))))))))))))))))))))))))))))))))))))))))))))))))))))))))))))))))))))))))))))))))))))))))))))))))))))))))))))))))))))))))))))))))))))))))))))))))))))))))))))))))))))))))))))))),;*$$$$$;)))-$$$$$-;''))))))))))))))))))))))",
")))))))))))))))))).+>)))))))))&++)))))))))))))))))))))))))))))))))))))))))))))))))))))))))))))))))))))))))))))))))))))))))))))))))))))))))))))))))))))))))))))))))))))))))))))))))))))))))))))))))))))))))))))))),;*$$$$$$$$*');$$$$$$$$$-;'))))))))))))))))))))",
")))))))))))))))))+&)))))))))))))..))))))))))))))))))))))))))))))))))))))))))))))))))))))))))))))))))))))))))))))))))))))))))))))))))))))))))))))))))))))))))))))))))))))))))))))))))))))))))))))))))))))))))))),-*$$$$$$$$$$$-)*$$$$$$$$$$$*;,))))))))))))))))))",
"))))))))))))))))+.)))))))))))))))+.)))))))))))))))))))))))))))))))))))))))))))))))))))))))))))))))))))))))))))))))))))))))))))))))))))))))))))))))))))))))))))))))))))))))))))))))))))))))))))))))))))))))))),-*$$$$$$$$$$$$$*-$$$$$$$$$$$$$$*;'))))))))))))))))",
"))))))))))))))).&))))))))))))))))).#)))>.++++++.=)))))))))))))))))))))))))))))))))))))))))))))))))))))))))))))))))))))))))))))))))))))))))))))))))))))))))))))))))))))))))))))))))))))))))))))))))))))))))));*$$$$$$$$$$$$$$$$$$$$$$$$$$$$$$$$$*,)))))))))))))))",
"))))))))))))))++)))))))))))))))))))+)@+.)))))))).+.))))))))))))))))))))))))))))))))))))))))))))))))))))))))))))))))))))))))))))))))))))))))))))))))))))))))))))))))))))))))))))))))))))))))))))))))))))))))-$$$$$$$$$$$$$$$$$$$$$$$$$$$$$$$$$$$$$;))))))))))))))",
"))))))))))))))+>)))))))))))))))))))+++')))))))))))+.))))))))))))))))))))))))))))))))))))))))))))))))))))))))))))))))))))))))))))))))))))))))))))))))))))))))))))))))))))))))))))))))))))))))))))))))))))))*$$$$$$$$$$$$$$$$$$$$$$$$$$$$$$$$$$$$$$$-)))))))))))))",
")))))))))))))).)))))))))))))))))))))@))))))))))))))++))))))))))))))))))))))))))))))))))))))))))))))))))))))))))))))))))))))))))))))))))))))))))))))))))))))))))))))))))))))))))))))))))))))))))))))))))))*$$$$$$$$$$$$$$$$$$$$$$$$$$$$$$$$$$$$$$$$$*')))))))))))",
")))))))))))))#&)))))))))))))))))))))))))))))))))))))+.))))))))))))))))))))))))))))))))))))))))))))))))))))))))))))))))))))))))))))))))))))))))))))))))))))))))))))))))))))))))))))))))))))))))))))))))),$$$$$$$$$$$$$$$$$$$$$$$$$$$$$$$$$$$$$$$$$$$$*)))))))))))",
"))))))))))&..+))))))))))))))))))))))))))))))))))))))).')))))))))))))))))))))))))))))))))))))))'>))))))))))))))))))))))))))))))))))>'))))))=&)))))))))))>#>)))))))))))''))'&'))))'=)))))))))))))))))))))$$$$$$$$$$$$$$$$$$$$$$$$$$$$$$$$$$$$$$$$$$$$$$*))))))))))",
")))))))#++....))))))))))))))))))))))))))))))))))))))))+)))))))))))))'===============')))))))))=.')))))))))=====>>.........=)))'>&@.#))')))&@)))))))))))>.>)))))))))))@#))'.&))))&.>)))))))))))))))))))*$$$$$$$$$$$$$$$$$$$$$$$$$$$$$$$$$$$$$$$$$$$$$$$*)))))))))",
")))))+++))))))))))))))))))))))))))))))))))))))))))))))+#))))))))))))>...............=)))))))))=.'))))))))'.....@>.>>=.=>>.=))#...@=))>.=))&@)))))))))))>.>)))))))))))=.>))&.'))>.&)))))))))))))))))));$$$$$$$$$$$$$$$$$$$$$$$$$$$$$$$$$$$$$$$$$$$$$$$$$,))))))))",
"))))@+')))))))))))))))))))))))))))))))))))))))))))))))&.))))))))))))>.')>=)))))&>)).=)))))))))=.')))))))))))##))>.))'.')).=))>>'.&))))=.&)&@)))))))))))=.')))))))))'>>@@>>=.&>>@+>>'))))))))))))))))),*$$$$$$$$$$$$$$$$$$$$$$$$$$$$$$$$$$$$$$$$$$$$$$$*'))))))))",
")))+.))))))))))))))))))))))))))))))))))))))))))))))))))+))))))))))))>.')>.>)))>.>)).=)))))))))=.')))))))))))##))>.))'.')).=))))).&)))))=.=&@)))))))))))=.')))))))))&...............&)))))))))))))))))),;;;;-*$$$$$$$$$$$$$$$$$$$$$$$$$$$$$$$$$$$*-;;;,')))))))))",
"))=+)))))))))))))))))))))))))))))))))))))))))))))))))))+))))))))))))>.'))##)))##))).=)))@=))))=.'))))=@)))))##))>.........=))))).&))))))>)&@)))))))))))&.))))))))))&.)))))))))))))@&))))))))))))))))))))))))),-$$$$$$$$$$$$$$$$$$$$$$$$$$$$$$*;,')))))))))))))))",
"))+)))))))))))))))))))))))))))))))))))))))))))))))))))).))))))))))))>.'>>&#>>>@=>>'.=))).&))))=.'))))&.)))))##))>.>>>.=>>.=)'.......>)))))&@))))@...............@))&.)))))))))))))@&))))))))))))))))))))))))))));$$$$$$$$$$$$$$$$$$$$$$$$$$*;'))))))))))))))))))",
")+=)))))))))))))))))))))))))))))))))))))))))))))))))))).))))))))))))>.'...........>.=))).&))))=.'))))&.)))>=@@=>>.))'.')).=))==&.#=='@&)))&@))))=&&&&&&+.+&&&&&&=))&.)#.........&)@&))))))))))))))))))))))))))))))-$$$$$$$$$$$$$$$$$$$$$$$;'))))))))))))))))))))",
")+))))))))))))))))))))))))))))#+++=))))))))))))))))))))+))))))))))))>.'))))>.'))))).=))).&))))=.'))))&.)))+....&>.))'.')).=))))#..'))=.@')&@))))))))))'...')))))))))))>>>>>>>&.@'))))))))))))))))))))))))))))))))));$$$$$$$$$$$$$$$$$$$$*,))))))))))))))))))))))",
"&#)))))))))))))))))))))))))))+=)=>+))))))))#&))))))))))+')))))))))))>.')&')>.')>=)).=))).&))))=.'))))&.)))))##))>.........=)))'..@@)))>+@)&@))))))))))=.=.&)))))))))))))))))&.#')))))))))))))))))))))))))))))))))))),*$$$$$$$$$$$$$$$$$*')))))))))))))))))))))))",
".)))))))))))))))))))))))))))).)=++=&)))))@+.++)))))))))=+.))))))))))>.').>)>.')=@)).=))).&))))=.'))))&.)))))##))'>>>=.&>>>')))&@.&@#)))>=)&@))))))))))#+)#@)))))))))))))))>+.=)))))))))))))))))),--)))))))))))))))))),*$$$$$$$$$$$$$$$*'))))))))))))))))),--')))",
"+))))))))))))))))))))))))))).))+++..))))&>)..>+))))))))))#+)))))))))>.').>)>.')=@)).=))).&))))=.'))))&.)))))##))))))>.>))))))'.=.&>@))))))&@>=)))))))>.&)=.=)))))))>======&.&======>))))))))))))-$$-)))))))))))))))))),*$$$$$$$$$$$$$*')))))))))))))))))'-$$;)))",
"+))))))))))))))))))))))))))).)>+++..))))+)=++..))))))))))).+))))))))>.').>)>.')=@)).=))).&))))=.'))))&.)))))##))'>>>=.&>>>>))#@).&)'))>=&#+...>))))))#.'))@.'))))))@...............+))))))))))))$$$$,))))))))))))))))));$$$$$$$$$$$$*,))))))))))))))))));$$$*'))",
"+))))))))))))))))))))))))))).)'+++>@)))+))++++=))))))))))))#.)))))))>.').=>=.>>&@)).=))).&))))=.'))))&.)))))##=&&.........#)>.>).&))@....@@+>'))))))=.&)))>.#)))))))))))))>.>)))))))))))))))))),$$$$*)))))))))))))),,)))-$$$$$$$$$$$;)));'))))))))))))),$$$$$'))",
".))))))))))))))))))))))))))).))++.)'))).))++++=)))))))))))))+>))))))>.')........@)).=))).&))))=.'))))&.)))'=+..#))))>.>))))))&)).&))&&='))&@)))))))=.@)))))&.#))))))))))))>.>))))))))))))))))))-$$$$$*)))))))))))))*$-)))*$$$$$$$$$-)),-$-)))))))))))),*$$$$$;))",
"@=)))))))))))))))))))))))))).')))).))))+))+++@.)))))))))))))>+))))))>.').>)))))=@)).=))).#====#.&====#.))>..@&')))))>.>))))))))).&))))))))&@))))))=.@'))))))#.&)))))))))))>.>))))))))))))))))))*$$$$$$*)))))))))));$$$*;),$$$$$$$$$')-$$$$,)))))))))),*$$$$$$-))",
").))))))))))))))))))))))))))'+))).&)))).))>++)+))))))))))))))+))))))>.')>'))))))))'.=)))...............)))&')))>>>>>=.&>>>>')))).&))))))))&@))))'&.@'))))))))@.@>)))))))))>.>))))))))))))))))))$$$$$$$$*))))))))))$$$$$$*,*$$$$$$$-;$$$$$$*))))))))),$$$$$$$$*))",
")+)))))))))))))))))))))))))))).+.))))))>.)))).)))))))))))))))&&)))))>.')))))))))@...>))).&)))))))))))&.))))))))............>)))).&))))))))&@))))@.#'))))))))))&.@))))))&...+')))))))))))))))))'$$$$$$$$$$;))))))),*$$$$$$$*$$$$$$$*$$$$$$$*))))))))-$$$$$$$$$$))",
")&+)))))))))))))))))))))))))))))))))))))#.)>+))))))))))))))))).)))))'>))))))))))'>>'))))&>)))))))))))>=)))))))))))))))))))))))))&=))))))))=&))))>>)))))))))))))>>))))))'==>')))))))))))))))))),$$$$$$$$$$$-))))))));$$$$$$$$$$$$$$$$$$$$*,))))))),*$$$$$$$$$$$')",
"))+>)))))))))))))))))))))))))))))))))))))=..))))))))))))))))))+)))))))))))))))))))))))))))))))))))))))))))))))))))))))))))))))))))))))))))))))))))))))))))))))))))))))))))))))))))))))))))))));$$$$$$$$$$$$$-,)))))))-$$$$$$$$$$$$$$$$*-))))))',-$$$$$$$$$$$$$,)",
")))+@)))))))))))))))))))))))))))))))))))))))))))))))))))))))))+)))))))))))))))))))))))))))))))))))))))))))))))))))))))))))))))))))))))))))))))))))))))))))))))))))))))))))))))))))))))))))))))-$$$$$$$$$$$$$$$*;,,)))),*$$$$$$$$$$$$$-,))'',,;*$$$$$$$$$$$$$$$,)",
"))))+>))))))))))))))))))))))))))))))))))))))))))))))))))))))))+)))))))))))))))))))))))))))))))))))))))))))))))))))))))))))))))))))))))))))))))))))))))))))))))))))))))))))))))))))))))))))))))-$$$$$$$$$$$$$$$$$$**-----$$$$$$$$$$$$$-----**$$$$$$$$$$$$$$$$$$,)",
")))))++))))))))))))))))))))))))))))))))))))))))))))))))))))))).)))))))))))))))))))))))))))))))))))))))))))))))))))))))))))))))))))))))))))))))))))))))))))))))))))))))))))))))))))))))))))))))-$$$$$$$$$$$$$$$$$$$$$$$$$$$$$$$$$$$$$$$$$$$$$$$$$$$$$$$$$$$$$$$,)",
"))))=+)))))))))))))))))))))))))))))))))))))))))))))))))))))))&#)))))))))))))))))))))))))))))))))))))))))))))))))))))))))))))))))))))))))))))))))))))))))))))))))))))))))))))))))))))))))))))))-$$$$$$$$$$$$$$$$$$$$$$$$$$$$$$$$$$$$$$$$$$$$$$$$$$$$$$$$$$$$$$$,)",
"))).+))))))))))))))))))))))))))))))))))))))))))))))))))))))))+))))))))))))))))))))))))))))))))))))))))))))))))))))))))))))))))))))))))))))))))))))))))))))))))))))))))))))))))))))))))))))))));$$$$$$$$$$$$$$$$$$$$$$$$$$$$$$$$$$$$$$$$$$$$$$$$$$$$$$$$$$$$$$$,)",
")))+))))))))))))))))))))))))))))))))))))))))))))))))))))))))>+))))))))))))))))))))))))))))))))))))))))))))))))))))))))))))))))))))))))))))))))))))))))))))))))))))))))))))))))))))))))))))))));$$$$$$$$$$$$$$$$$$$$$$$$$$$$$$$$$$$$$$$$$$$$$$$$$$$$$$$$$$$$$$$')",
")).'))))))))))))))))))))))))))))))))))))))))))))))))))))))))+>)))))))))))))))))))))))))))))))))))))))))))))))))))))))))))))))))))))))))))))))))))))))))))))))))))))))))))))))))))))))))))))))),$$$$$$$$$$$$$$$$$$$$$$$$$$$$$$$$$$$$$$$$$$$$$$$$$$$$$$$$$$$$$$$))",
")=+)))))))))))))))))))))))))))))))))))))))))))))))))))))))).#)))))))))))))))))))))))))),,,,,,),,,,,,')))))))))))))$-)))))))))))))))))*%))))))))))))))))))$-)))))))))));-,)))',)))))')))))))))))$$$$$$$$$$$$$$$$$$$$$$$$$$$$$$$$$$$$$$$$$$$$$$$$$$$$$$$$$$$$$$*))",
").+))))))))))))))))))))))))))))))))))))))))))))))))))))))).+))))))))))))))%*)))))))))))$$$$$--$$$$$$$$%))))),,;;;;%*;;;;;;)))))))))))*%))))))))))))))))))$-))))))))))))*%)))-*))),-,)))))))))))*$$$$$$$$$$$$$$$$$$$$$$$$$$$**$$$-*$$$$$$$$$$$$$$$$$$$$$$$$$$$-))",
")+)))))))))))))))))))))))))))))))))))))))))))))))))))))))+.)))))))))))))))%*)))))))))))$-';%;-%;;;;;;;;))))*$$$$$$$$$$$$$$;)))),)))))*%,)))),))))))))))))$-)))))))))))),%-));%;))%%))))))))))))-$$$$$$$$$$$$$$$$$$$$$$$$$$$,*$$$;;$$$$$$$$$$$$$$$$$$$$$$$$$$$;))",
")+)))))))))))))))))))))))))))))))))))))))))))))))))))))&+.))))))))))))))))%*)))))))))))$-)-%'-%))))))))))))*%,,,;;,,,,,;;,))));%%%%%%%%%%%%%%-)))))))))))$-))))))))));%*%%**%%%*%%%**))))))))));$$$$$$$$$$$$$$$$$$$$$$$$$$;)*$$$-)-$$$$$$$$$$$$$$$$$$$$$$$$$$,))",
").))))))))))))))))))))))))))))))))))))))))))))))))))))+.))))))))))))))))),%*)))))))))))$-)**)-%))))))))))))*%)))%%)))))%%))))),**************-)))),))))),$-))))))))));$%***********%%)))))))))))$$$$$$$$$$$$$$$$$$$$$$$$$*)'*$$$-)'$$$$$$$$$$$$$$$$$$$$$$$$$*'))",
").)))))))))))))))))))))))))))))))))))))))))))))))))))).))))))))))))%%%%%%%%%%%%%%%%))))$-'$,)-%;;;;;;;)))))*%)),%-)))))%*))))))),*,)))))))*;)))));%%%%%%%%%%%%%%%*)));$,)))))))))))*%)))))))))))*$$$$$$$$$$$$$$$$$$$$$$$$;)'*$$$-))-$$$$$$$$$$$$$$$$$$$$$$$$-)))",
")+)))))))))))))))))))))))))))))))))))))))))))))))))))&#))))))))))))*******%%*******))))$;*%))-$$$$$$$$)))))*%))-%,,,,,,%*,)))))))$-)))))),$,))))),*******%%*******)));$,;;;;;;;;;;,*%)))))))))));$$$$$$$$$$$$$$$$$$$$$$$$')'*$$$-)),$$$$$$$$$$$$$$$$$$$$$$$$,)))",
")+)))))))))))))))))))))))))))))))))))))))))))))))))))+))))))))))))))))))),%$)))))))))))$--$,)-%;;,,,-$)))))*%))%*;$$$$$%%$;))))))%*))))))-%)))))))))))));$%))))))))));$,%$$$$$$$%%-*$))))))))))),*$$$$$$$$$$$$$$$$$$$$$$-))'*$$$-)))*$$$$$$$$$$$$$$$$$$$$$$*')))",
")+=))))))))))))))))))))))))))))))))))))))))))))))))))+)))))))))))))))))))-%$;))))))))))$-)*%)-%;$'))-$)))))*%);$*,-----%%-,))))))*%))))))*%)))))))))))))-$%;)))))))))),))))))),-$%,)))))))))))))),*****$$$$$$$$$$$$$$$$$;)))-***;)))-$$$$$$$$$$$$$$$$$****-,))))",
")+.))))))))))))))))))))))))))))))))))))))))))))))))).>)))))))))))))))))))*%%*))))))))))$-);%,-%)$-))%*)))))*%,%%*))))))%*))))))));$')))))%*)))))))))))))%%%-))))))))))))))))),*$*)))))))))))))))))))))-$$$$$$$$$$$$$$$$$')))))))))));$$$$$$$$$$$$$$$$$;)))))))))",
"))+))))))))))))))))))))))))))))))))))))))))))))))))..))))))))))))))))))))$*-$,)))))))))$-)'$;*%)*%)'$;)))))*%*%%*)%$)))%*)))))))))$;)))),%-))))))))))));%;%%))))))))))))))));$%-))))))))))))))))))))),$$$$$$$$$$$$$$$$$$'))))))))))),$$$$$$$$$$$$$$$$$$'))))))))",
")))+))))))))'##'))))))))))))))))))))))))))))))))))..))))))))))))))))))))*$),%-)))))))))$-)'$;%*)-$,*%))))))*%*,**))$%))%*)))))))))%*))));%;))))))))))))*%,;$;)))))))),------*%*------))))))))))))))))*$$$$$$$$$$$$$$$$$*')))))))))))'$$$$$$$$$$$$$$$$$$-))))))))",
")))+.))))))++..++')))>.))))))))))))))))))))))))))+.))))))))))))))))))));%*))%%,))))))))$-',%;%*),%*%*))))))*%))**))-%;)%*)))))))))*%))))-$))))))))))));$*))*$))))))));%%%%%%%%%%%%%%%)))))))))))))));$$$$$$$$$$$$$$$$$$*')))))))))))'$$$$$$$$$$$$$$$$$$$,)))))))",
"))))..)))&+))))))+&).+++))))))))))))++.)))))))=++))))))))))))))))))))))%%,)))$%))))))))$-%%%-%-))*%$,))))))%*))**)),$*)%*)))))))))-%,)))%*))))))))))),%%)));%*)))))))),)))))-%;)))))))))))))))))))))-$$$$$$$$$$$$$$$$$$-))))))))))))'*$$$$$$$$$$$$$$$$$$;)))))))",
")))))+.))+>)))))))+++))+'))))))))))+.)+++...+++&))))))))))))))))))))))%$-))));%*)))))))$-%%-;%;))*$%)))))))%-))**))))))%*))))))))),$-)),$;)))))))))),%%;))))*$*)))))))))))));%,))))))))))))))))))))))*$$$$$$$$$$$$$$$$$-))))))))))))'*$$$$$$$$$$$$$$$$$*))))))))",
"))))))=+..))))))))..))))++))))))).+)))))))))))))))))))))))))))))))));%%-))))))*$%;)))))$-)))*%))*$%%%))))),$;))**))))))%*))))))))))%*))*%))))))))))-%$-))))))*%%,)))))))))));%,)))))))))))))))))))))),$$$$$$$$$$$$$$$$$*')))))))))))'$$$$$$$$$$$$$$$$$*'))))))))",
"))))))))+>))))))))>+)))))#++.##.+.)))))))))))))))))))))))))))))))))*$%*))))))))-%$*))))$-)),$-,%%*)-%%,)))-$)))**)))),)%*)))))*****%$**%%%***%,)),*$%-))))))))*%$-)))))))),)-%,)))))))))))))))))))))));$$$$$$$$$$$$$$$$*')))))))))))'$$$$$$$$$$$$$$$$$,)))))))))",
"))))))))&&))))))))=.))))))))>=>))))))))))))))))))))))))))))))))))))$%;))))))))));%$;)))$-))%%)*%,)));%*)))--)))**)));%%$*)))))***************%,))-$*,))))))))));$$,))))))*%%%%,))))))))))))))))))))))));$$$$$$$$$$$$$$$$'))))))))))),$$$$$$$$$$$$$$$$,))))))))))",
"))))))))).))))))))..)))))))))))))))))))))))))))))))))))))))))))))))-))))))))))))))-;)))*;);*;);)))))));))))))))))))))))))))))))))))))))))))))))));-))))))))))))))-)))))))-***-))))))))))))))))))))))))));$$$$$$$$$$$$$$$,)))))))))));$$$$$$$$$$$$$$$,)))))))))))",
")))))))))+.))))))=+))))>>))))))))))))))))))))))))))))))))))))))))))))))))))))))))))))))))))))))))))))))))))))))))))))))))))))))))))))))))))))))))))))))))))))))))))))))))))))))))))))))))))))))))))))))));$$$$$$$$$$$$$$;)))))))))))*$$$$$$$$$$$$$*,))))))))))))",
"))))))))))+.)))).+))))++++'))))))))))))))))))))))))))))))))))))))))))))))))))))))))))))))))))))))))))))))))))))))))))))))))))))))))))))))))))))))))))))))))))))))))))))))))))))))))))))))))))))))))))))))),*$$$$$$$$$$$$*))))))))))'$$$$$$$$$$$$$-')))))))))))))",
")))))))))))&++++&))))+))))+>))))))))))))))))))))))))))))))))))))))))))))))))))))))))))))))))))))))))))))))))))))))))))))))))))))))))))))))))))))))))))))))))))))))))))))))))))))))))))))))))))))))))))))))))-$$$$$$$$$$$$,)))))))));$$$$$$$$$$$*;)))))))))))))))",
"))))))))))))))))))))..))))&.)))))))))))))))))))))))))))))))))))))))))))))))))))))))))))))))))))))))))))))))))))))))))))))))))))))))))))))))))))))))))))))))))))))))))))))))))))))))))))))))))))))))))))))))));*$$$$$$$$$$-)))))))))*$$$$$$$$$$-,))))))))))))))))",
")))))))))))))))))))).+))))>+)))))))))))))))))))))))))))))))))))))))))))))))))))))))))))))))))))))))))))))))))))))))))))))))))))))))))))))))))))))))))))))))))))))))))))))))))))))))))))))))))))))))))))))))))));*$$$$$$$$$,)))))));$$$$$$$$$-,))))))))))))))))))",
"))))))))))))))))))))>+))))..))))))))))))))))))))))))))))))))))))))))))))))))))))))))))))))))))))))))))))))))))))))))))))))))))))))))))))))))))))))))))))))))))))))))))))))))))))))))))))))))))))))))))))))))))))),-$$$$$$$-)))))))*$$$$$$$-,')))))))))))))))))))",
")))))))))))))))))))))..))&+)))))))))))))))))))))))))))))))))))))))))))))))))))))))))))))))))))))))))))))))))))))))))))))))))))))))))))))))))))))))))))))))))))))))))))))))))))))))))))))))))))))))))))))))))))))))));*$$$$-)))))))*$$$$-,'))))))))))))))))))))))",
"))))))))))))))))))))))#...))))))))))))))))))))))))))))))))))))))))))))))))))))))))))))))))))))))))))))))))))))))))))))))))))))))))))))))))))))))))))))))))))))))))))))))))))))))))))))))))))))))))))))))))))))))))))))),;;))))))))'-;,))))))))))))))))))))))))))"};
