/* XPM */
static const char * team_logo_xpm[] = {
"256 64 65 1",
" 	c None",
".	c #000100",
"+	c #110D0C",
"@	c #1B1C1A",
"#	c #1D3541",
"$	c #3F342B",
"%	c #2A4961",
"&	c #534543",
"*	c #74473C",
"=	c #426335",
"-	c #1C7737",
";	c #995250",
">	c #A35365",
",	c #BA545D",
"'	c #696B68",
")	c #467D2D",
"!	c #3F7A90",
"~	c #4A8132",
"{	c #657653",
"]	c #4D822C",
"^	c #4F8833",
"/	c #4C8097",
"(	c #518940",
"_	c #518C2D",
":	c #D46975",
"<	c #5D9155",
"[	c #5F952F",
"}	c #7E8597",
"|	c #F96489",
"1	c #51A631",
"2	c #699C6E",
"3	c #FE6E8B",
"4	c #B28B5D",
"5	c #B38A6D",
"6	c #56AF29",
"7	c #FC748F",
"8	c #7FA149",
"9	c #71A587",
"0	c #A49C5E",
"a	c #D68A7F",
"b	c #FA8198",
"c	c #AC9E8B",
"d	c #8BB69F",
"e	c #87B7AF",
"f	c #FC96A7",
"g	c #A9AEB1",
"h	c #88BBBE",
"i	c #A0C171",
"j	c #FCAB6F",
"k	c #A2C6BB",
"l	c #C6C37B",
"m	c #9FC7C8",
"n	c #FBAEBB",
"o	c #FFB594",
"p	c #AECFCE",
"q	c #FEBF96",
"r	c #EDC5A7",
"s	c #FDC89C",
"t	c #D5D2CD",
"u	c #FEC7D3",
"v	c #E8D6BF",
"w	c #EAD7B4",
"x	c #F8E0C0",
"y	c #FEE0E5",
"z	c #FEFFFC",
"                                                                                                                                                                                                                                                                ",
"                   zzzzzz                 zzzzzzzzzzzzzzzz                                                                                                                                                                                                      ",
"                  zzzzzzzzz               zz**;****zzzzzzzz                                                                                                                                                                                                     ",
"                  zz+++@zzzz              zz*,3777:,;****zz                                                                                                                                                                                                     ",
"                  zz+++@@@zz              zz*:7777377777:zz                                                                                                                                                                                                     ",
"                  zz+++@@@zz              zz*777777777773zz                               zzzz                                zzzzz     zzzz          zzzz          zzzzzzzzz   zzzz                                                                            ",
"                  zz+++@@zzz              zz*777nf7337777zz    zzzzzzzzzzzzzzzzzz        zzzzzz       zzzzzzzzzzzzzzzzzzzzzzzzzzzzzzzzzzzzzzz        zzzzzz        zzzzzzzzzzzzzzzzzz                                                                           ",
"               zzzzzz++@zzzz              zz*337zzzzu7777zz   zzzzzzzzzzzzzzzzzzzz      zzzttzzz     zzzzzzzzzzzzzzzzzzzzzzzzzzzzyzzzzzzz}czzz      zzz}}zzz      zzzzyzzzggzzzzzytzzz                                           zzzzzzzzzzz                    ",
"             zzzzzz}}}}}zzzz             zzz;33bznbuzb773zz  zzyggggggggggggggggyzz     zzz@&zzz    zzzzzzzzzzpgggggggggyzzzzzt'@@yzzzzzz$&zzz      zzz$$zzz      zzz&$zzz'+zzzzz&+tzz                                        zzzzzzzzzzzzzzzzz                 ",
"            zzzz@@@@}%+@@@zzz            zz*;37fzzyzzb737zz  zzt................gzzzzzzzzzz@&zzzzzzzzzz......t@.........gzz}$...&gzz''zzz$&zzz      zzz$&zzz      zzzt.}zzt.}zzzg.}zzz                                    zzzzzzzz~~zz~^^z~zzzzzzzzz  zzzzzz    ",
"           zzz++@@@@+++@@@+zzz           zz*,77fzuyzz777zzz  zzt.gzy}zzzzzt'tzt.gzzzzzzzzzz@&zzzzzzzzzzcc&+ccy@}zz}$zzy.gzz}'}$&zzzzg+$yz$&zzzzzzzzzzzz$&zzzzzzzzzzzzz'@zzz'$zzy@&zzzzz                                  zzzzzz~]~~~~]~~~~~~~^zzzzzzzzzzzzzzz   ",
"          zzz+++@@@++++@@@++zzz          zz*:73uzunyz773zz   zzt.gzz@'zzzz'@zzt.gzzzzzzzzzz@&zzzzzzzzzzzz'@zzz@}zz}$zzy.gzzzzz&&zzzzzt+$z$&zzzzzzzzzzzz@'zzzzzzzzzzg................}zz                               zzzzz~~~))]~~~~~~_~~~_~~~~~~~zzzz~~~~zzz  ",
"          zz++++@@$'@''@@@+++zzz         zz*:37fyzzzy773zz   zzt.gzzc+yzzy+czzt.gzzz'}zzzzz@&zzzzz}'zzzzz'@zzz@'tt'@ttg.gzzzzz&&zzzzzzg&z$&zzzzzzzzzzzz.'zzzzzzzzzzg.cggggggggggggg.}zz                              zzzzz~~~~~~~~~((~~]~~]_~~~~~~[~~~~~]~~~zzz ",
"         zzz++++@gzznyzz'@+++@zzz        zz*777737bfb777zz   zzt.gzzz&tzzg&zzzt.gzzz@&zzzzz@&zzzzz&@zzzzz'@zzz@.........gzzccc$@ccgzzzzzz$&zzzzg}}}}}}'.$}}}}}}}czzg.yzzzzzzzzzzzzz.}zz                            zzzz))]_)~~_~<29eehe9992<(]]_~~^~~~~~^]~~~zz ",
"         zz@++++gzzb|bzzz$+++@@zz        zz*777777777737zz   zzt.g$...........t.gzzz@&zzzzz@&zzzzz&@zzzzz'@zzz@}zz}$zzy.gzz.......&ztzzzz$&zzzz&................$zzg.ytggggggggggyz.}zz                         zzzzzz~~~~])))<ehhheh92edehhh92<)~~~~~~)~~~~zzz ",
"        zzz@+++&zzn|||nzzt.++@@zz       zzz*777733773373zz   zzt.gtgggg$&gggggt.gzzz@&zzzzz@&zzzzz&@zzz$....@z@}zz}$zzy.gzzzzt.@zzzc.}zzz$&zzzzzzzzzzz}..}zzzzzzzzzzzzc.........@tzzzzz                        zzzzz~~)~)~~(29hhhe9~~]]~]]299hhhe2(~~^~~~^~~zz  ",
"        zz@@@++zzzialalzzz'++@@zzz      zz*;7777ny377377zz   zzt.gzzzzz$'zzzzzt.gzzz@&zzzzz@&zzzzz&@zzzgc&+cgz@&gg'@ggg.gzzzz'..'zzzc+&zz$&zzzzzzzzzzz&@@$zzzzzzzzzzzzzzzzzzzt$$yzzzzzz                      zzzz^~~~~)~)]<ehhhhh(~)~~)~~~)))<<2hhh2~_~~~_]~zz  ",
"        zz@@@+$ssxxsrwxxxzt++@@@zz      zz*;7bzzzzuf337zzz   zzt.gz&'zz$'zz&'zt.gzzz@&zzzzz@&zzzzz&@zzzzz'@zzz@.........gzzzz++$@czzzp+'z$&zzzzzzzzzzz.'}.tzzzzzzzzzzzzzzzzp'+}zzzzzzzz                     zzzz~_~))_]~~2hhhhhe~~~~~[~~~~)~~)))9hhh<~~~~~~~zzz ",
"        zz@@@+5s*$$sss5$$5s$@@@@zz      zz*,77uzzzzzu73zz    zzt.gz&'zz$'zz&'zt.gzzz@&zzzzz@&zzzzz&@zzzzz'@zzzzzzz'+zzzzzzzz}$&&g.tzzztzz$&zzzzzzzzzz}.py+'zzzzzzzzzzzzzzzz&@yzzzzzzzzzz                  zzzz~))^~~)](9ehhhhhh9))))~))~~~~~[~))~ehhh~~~~~~~~zz ",
"        zzzzzsqsqssssssssssqqzzzzz      zz*:77nzzzzb377zz    zzt.gz&'zz$'zz&'zt.gzzz@&zzzzz@&zzzzz&@zzzzz'@zzzzzzz'+zzzzzzzy+g&&z&tzzzzzz$$c'zzzzzzzz+@zz'.pzzzzzzz&................$zzz                 zzzz~)))~~))(ehhhhhhhd]_)))~))~~~~~]~)~~2hhm~~~~)~~~zz ",
"        zzzzzqqqqqsssssqqqqqqzzzzz      zz*77uzuzzzf777zz    zzt.gz&'zz$'zz&'zt.gzzz@&zzzzz@&zzzzz'@zzzzz'@zpt..........'zz&@z&&zzzypc'&@...@tzzzzzz}.gzzy+$zzzzzzzgccccccc$@cccccccgzzz              zzzzz~~~)))~)(9hhhhhhhhd2)])))~~~~~~~~)~_]~2hhe])^))~~~zz ",
"        zzzqqqoqs$5ssss$5qqooqqzzz      zz*7fyfyzyyzb37zz    zzt.gz&&gg$&gg$'zt.gzzz@&zzzzz@&zzzzz'@zzzzz'+@.tgggg&.ggggtzt.gz&&zz}...@&'@&zzzzzzzzg.$zzzz}.'zzzzzzzzzzzzzz&&zzzzzzzzzz             zzzzzz~~~~~~~~)ehhhhhhhe<~~~~~~)~~~~^_~~~)~~~ehh2)~[~~~~~zz ",
"        zzqqooooqqsssssqqqoooqqqzz     zzz*7733fzu7un77zz    zzt.gz&........'zt.gzzz@&zzzzz@&zzzzz'@zzzg&+.@'yzzzz'+zzzzzzz}zz&&zzt}pyzzz$&zzzzzzzt+@tzzzzz&.}zzzzzzzzzzzzz&&zzzzzzzzz             zzzz~~]_~))[]~(9hhhhhhhh<~~~~~~~~~~~~]_~~~~~~2hhh<~~~~~]]~zz ",
"        zzqqooooqqssossqqoooooqqzz     zz*;77337b377377zz    zzt.gz&'zzzzzz''zt.gzzz@..............@zzy.+'gzzzzzzz'+zzzzzzzzzz$$zzzzzzzzz$&zzzzzzg++tzzzzzzz$.'zzzzzzzzzzzz&&zzz                 zzzz~~~~]^~~~](dehhhhhhhd9(~~~~~~~_)~~~~~~~~~~2mhh2~))~~~]^~zz ",
"        zzzqooooqqssossqqoooooqzzz     zz*;333373777777zz    zzt.gztyzzzzzzzzzt.gzzz@$}}}}}}}}}}}}$@zzzgzzzztggggg&.gggggyzzzz$$zzzzzzzzz$&zzzzy'.@tzzzzzzzzy@.@gzzzzzzzzzz$&zzz                zzzz~~~~)~~~~~(ehhhhhhh9(~)~~~~~~~][~)~~~~~~(<dhhhh])~~~~~~~~zz ",
"         zzzzooqqqosssqqqqooozzzz      zz*,77337377777zzz    zzt.gzzzzzzzzzy+..+yzzz@&zzzzzzzzzzzz'@zzzzzzzz'............pzzzz$$zzz   zzz$&zzzz$.'yzzz    zzzz'.$zzzzzzg....}zzz               zzz~~~~]~~))~~2ehhhhe9<(]~~)^]~)~~)~~~~~))<<9mmmhhm(~~)~~~~~~^zz ",
"         zzzzoqqqqa,so,sqqqqzzzzz      zz*:33337777377zz     zzzgyzzzz   zzzgggyzzzzttzzzzzzzzzzzzytzzzzzzzzzzzzzzzzzzzzzzzzzz}}zzz   zzz}}zzzztgzzzz      zzzzpyzzzzzzzccgtzzzz              zzz^~~~]_~~))]9mmmmme(~~~~~~~]^~~~~~~~~~~)(mhmmmmmm2~)~)~~_~~~zzz ",
"         zzzzzqqqsso::qsqqqqzzzzz      zz*:7bnffb73777zz      zzzzz       zzzzzzzzzzzzzzzzzzzzzzzzzzzz    zzzzzzzzzzzzzzzzzzzzzzzz     zzzzzzzzzzzzz        zzzzzzz   zzzzzzzzz             zzzz~~~~)~~~~~<emhmmm2~)~)]~~~~~~))~~~~~~~~~emmmmmmme~~_]~~~_~~~zz  ",
"        zzzzzzzqssssssssssqzzzzzz      zz*:7uzzzzzy777zz       zzz         zzzzzzzzzzzz          zzzz      zzzzzzzzzzzzzzz   zzzz       zzzzzzzzzzz          zzzzz     zzzzzzz             zzzz))^^~)))~)9mmmmmd<]~~~~^~~~~~~))[~~~~~~~~emmmmmmm<]~^~~~~~~~zzz  ",
"       zzzz77777asssssssrf3777zzzz     zz*777ffnuyy777zz                                                                                                                                  zzz)~~~__~~))~9mmmmkd<~~~~~~~~)~))))~~~~~~~~~2mmmmmmme)~~~~~~~~~~zz   ",
"       zz7777777b--0jj<--3777777zz     zz*37777733337zzz                                                                                                                                 zzz~~~~~~~)~~(dmmmmd(]~~)~]~~~~))_~)~~~)~~~~~~dmmmmmmm2~~~~~~~~~~zzz   ",
"       zzz777777b1--j0--17777777zz    zzz;37777737773zz                                                                                                                                 zzz^~~~~~))~~]emmmmm<~~~~~][~~))~~_~~~~~~~)~~~(mmmmmmm2))~~~~~~~~zzz    ",
"       zzz737737:6--(--11377777zzz    zz*,77777773773zz                                                                                                                                 zz~)~~~~~)~~~~9dmmmme2(~))~~~))~)~~~~~)~~~~[]~2mmmmmmd)~~~~~~^~~~zz     ",
"       zzz6:7777:61---16677777a6zzzzzzzz*:77737737333zz                                                                                                                                 zz~~~~~~]~~~~~~(emmmmmkd<])~~~~~^~~~~~~~~~~])]9mmmmme(~~^~~~~[))zzz     ",
"      zzz6603337a61--^666b7773[66zzzzzzz*zzzzz7377737zz                                                                                                                                 zz~~~)~]_)~~~~)~~99mmmmmmm9(~~~~[~~~~~~~)~~~)~mmmmmm9~~~[~~~~_))zz      ",
"      zz6666b373a6---6666:333466666zzzzs5zzzzzzzzzzzzzz               zzzz                                 zzzzzzzzzz             zzzz                zzzz          zzzzzzzzz   zzzz    zz~~)~~~~)))^]~~~]]<2dmmmmmk<<~)~~~~~]_~~~~~)2mmmmmm)~~~)~~~)))zzz      ",
"     zzz666683774_--16666:777666666666iqjqzzzzzzzzzzzz               zzzzzz        zzzzzzzzzzzzzzzzzzz    zzzzzzzzzzzz           zzzzzz              zzzzzz        zzzzzzzzzzzzzzzzzz   zzzz~~~~~~~~[~~~)~)~~~(2mmmmmpk2]~~~~~[~~~~~~dmmmmm2]~~~~~~~~~~zz       ",
"    zzz666660377{--_66666a777666666666lqjqzz                        zzz}}zzz      zzzzzzzzzzzzzzzzzzzzzzzzzzzzzzzzzzzzz         zzz}}zzz            zzz}}zzz      zzzzyzzzggzzzzzytzzz   zzzz~~~~~~~))~~~)~~~))~<2kppmppk2<(~~~~~~~~(pmmmmm]~~~~~~~~~~zzz       ",
"    zz66666zz737{--666666a377z66666666lqjqzz                        zzz$$zzz     zztgggggztggggggggggzzzzzzz&'zzzz'&zzz         zzz$&zzz            zzz$$zzz      zzz&$zzz'+zzzzz&+tzz     zzzz~)~~)~~~~~)~]_)))~~(<kppppppd~]~~~~~~<ppppp2~~~~~~~~)~~zz        ",
"    zz66666z7377=-16666664377zzz666666zjjqzz                        zzz$&zzz     zzg.....tg.........$zzzzzzg.}zzzz}.gzzz   zzzzzzzz$&zzzzzzzz       zzz$&zzz      zzzt.}zzt.}zzzg.}zzz      zzzzz~~~~~~~_~~~])))~~~~((9pppppp92~~~~]kpppmk~~]~~~~]_~~zzz        ",
"   zzz6666zz7733=1666666607777zzzzzzzzz**zzz                   zzzzzzzz$&zzzzzzzzzzg.zz'$zg.yzzzzzzzzzzzzzz$+zzzzzz@@yzzzzzzzzzzzzz$&zzzzzzzzzzzzzzzzzz$&zzzzzzzzzzzzz'@zzz'$zzy@&zzzzz       zzzzz~~~~~_~~~))))~~~~~)~<<kpppppd2<<2ppppk2)~_~~~~~^~~zz         ",
"   zz6666zzz7773_6666666683777zzzzzzzzz*zzz                   zzzzzzzzz@'zzzzzzzzzzg.zz@}zg.yzzzzzzzzzzzzzg.}zzzzzzg.'zzzzzy}}}}}}}@@}}}}}}}tzzzzzzzzzz@'zzzzzzzzzzg................}zz         zzzzz~~~~~))))))~~~~~~~~~~~2pppppppppppp<)~~~~~~~)~~^zz         ",
"   zz6666zzz777366666666683773zzz    zz*zz                   zzzzzzzzzz.'zzzzzzzzzzg.zg.yzg.yzzzzzzzzzzzzy@@zzzzzzzz'.gzzzzt................gzzzzzzzzzz.'zzzzzzzzzzg.cggggggggggggg.}zz           zzzzz)~~~~)))_~~~~~~)~~~~)22kpppppppp<)~~~)~~~~~~~zzz         ",
"  zzz166zzz7773ni16666681=*777zzz    zz*zz                  zzzg}}}}}}'.$}}}}}}}czzg.z''zzg.yzzzzzzzzzzzz&.czzzzzzzzy@+tzzzzzzzzzzzzzzzzzzzzzzzg}}}}}}'.$}}}}}}}czzg.yzzzzzzzzzzzzz.}zz             zzzz~~~~~))]~~~~^])~~~~)))(9kpppppp2~~~~~~~~~~~zzz          ",
" zzzssslzzz7773rvw66666}}@.,77zzz    zz*zz                  zzz&................$zzg.z$'zzg........+tzzz}.&zzzzzzzzzzt.@yzzzzzg&zzzzzzzt@czzzzz&................$zzg.ytggggggggggyz.}zz               zzzz~)~~~~~))~__~)~~~_~~~]]kkpppk<~~~~~~]])~~zz           ",
" zzssssqzzz77frr5811111^}}.>777zz   zzz*zz                  zzzzzzzzzz}..}zzzzzzzzzg.zt.tzg.@$gggg&+zzz}.@yzzz&'zzzzzz}.$zzzzzg.pzzzzzz}.gzzzzzzzzzzzz}..}zzzzzzzzzzzzc.........@tzzzzz                zzzzz~~~)~))~~~~~~~~]~~~~))~<22()~~~)~~]_)~~zz           ",
" zzsssjzzzz77vvvxg!!!///@.+b777zz   zz**zz                   zzzzzzzzz&@@$zzzzzzzzzg.zz&&zc.}@zzzz&&zzzg@tzzzt.&zzzzzzz'}zzzzzz+'zzzzzz&.zzzzzzzzzzzzz&@@$zzzzzzzzzzzzzzzzzzzt$$yzzzzzz                  zzzzz]~~)~~~~~~~~~~~~~~~))~~~)~~[]~~~~~~~zzz           ",
" zzzssszzzz77vvvvv!//!!/!#>7777zz   zz**zz                    zzzzzzzz.'}.tzzzzzzzzg.zz}@z}.t.pzzz+}zzzzzzzzz'.pzzzzzzzzzzzzzzz&@zzzzzz@&zzzzzzzzzzzzz.'}.tzzzzzzzzzzzzzzzzp'+}zzzzzzzz                    zzzzzz~))))))~~~~~~~~)~)~~~~~~]~~~~)~~~zz            ",
"  zzzzzzzz773rwwvh!!!!!!!!77777zz   zz*zzz                       zzzz}.py+'zzzzzzzzg.zzp.y'@z$'zzg.pzzzzzzzzz@$zzzzzzzzzzzzzzzzc.tzzzzt.}zzz     zzzz}.py+'zzzzzzzzzzzzzzzz&@yzzzzzzzzzz                     zzzzz~~))~~~[~~~~~~~~)~~~~)~~~~~~~~~zzz            ",
"   zzzzzzz3333b>/!!!!!!!!!77777zz   zz*zz                        zzzz+@zz'.pzzzzzzzg.zzp.y'$z}+yz&@zzzzzzzzzg.czzz}@tzzzzzzzzzzt.gzzzzc.tzzz     zzzz+@zz'.pzzzzzzz&................$zzz                        zzzz))))~^~~~~]^~)~~~~~~~~~)~~)~~zz             ",
"        zzzz///!!!!!!!!!!!////zzz   zz*zz                        zzz}.gzzy+$zzzzzzzg.yg&+z$'zz@'t.}zzzzzzzzz$@zzzzt+$zzzzzzzzzzy.}zzzz&@zzzz     zzz}.gzzy+$zzzzzzzgccccccc$@cccccccgzzz                         zzzzz)~~~~~~~^_)~~~]~~~~~~~~~)~zzz             ",
"         zzz!!!!/!!!!!!!!!!!!!zz    zz*zz                      zzzzg.$zzzz}.'zzzzzzg.t.@gz.}zzg.@@zzzzzzzzzp.}zzzzz}.'zzzzzzzzzz+'zzzz+'zzzzzzzzzzzg.$zzzz}.'zzzzzzzzzzzzzz&&zzzzzzzzzz                            zzzzz~~)~~~))~~)^[~~~~~~~~~~zzz              ",
"          zz!!!/!!!!!!!!!!!!!!zz   zzz*zz                     zzzzt+@tzzzzz&.}zzzzzg.zzzzg.tzzz@.czzzzzzzzz&+zzzzzzz&.gzzzzzzzzz&'zzzg.tzzzzzzzzzzt+@tzzzzz&.}zzzzzzzzzzzzz&&zzzzzzzzz                               zzzzz)~~)))~)~~]~~~~^_~~~~zz               ",
"          zz!!!!/!!!!!!!!!!!!zzz   zz**zz                    zzzzg++tzzzzzzz$.'zzzzg.zzzz'@zzz&.+@pzzzzzzzt.}zytttgg}.@zzzzzzzzzzzzzz'@zzzzzzzzzzg++tzzzzzzz$.'zzzzzzzzzzzz&&zzz                                       zzzzzz~~)~~~~~~~~~~~~~~zzz               ",
"          zzz!!!!/!!zz!!!!!!!zz    zz**zz                   zzzy'.@tzzzzzzzzy@.@gzzg.zzzt.}zg$.cy$.'yzzy++...........+.'zzz@................+zzy'.@tzzzzzzzzy@.@gzzzzzzzzzz$&zzz                                         zzzz^~~~)~~~))~~~)~~~zz                ",
"           zzz!!!!!zzzz!!!!!zzz    zz*zzz                   zzz$.'yzzz    zzzz'.$zzg.zzz&@z'.$tzzz'.@yzz''}}cggpttyzzz&.tzzc}}}}}}}}}}}}}}}}}zz$.'yzzz    zzzz'.$zzzzzzg....}zzz                                           zzzz~~~~~~~^_~~~~~zzz                ",
"            zz%%%%zzzzz%%%%zzz     zz*zz                    zzztgzzzz      zzzzpyzzt'zzzygztgzzzzzztgzzzzzzzzzzzzzzzzztgzzzzzzzzzzzzzzzzzzzzzzztgzzzz      zzzzpyzzzzzzzccgtzzzz                                            zzzzz)~~~~_])~~)~zz                 ",
"            zz%%%%zzzzzz%%%zz      zz*zz                     zzzzzzz        zzzzzzzzzzzzzzzzzzzzzzzzzzzzzzzzzzzzzzzzzzzzzzzzzzzzzzzzzzzzzzzzzzzzzzzz        zzzzzzz   zzzzzzzzz                                               zzzzzz~~)~)))~zzz                 ",
"            zz%%%%zzzzzz%%%zz      zz*zz                      zzzzz          zzzzzzzzzzzzzzzzzzzzzzzzzzzzzzz         zzzz                     zzzzz          zzzzz     zzzzzzz                                                  zzzzzz~~)))zzz                  ",
"            zz%%%%zzzzzz%%%zz      zz*zz                                           zzz                                                                                                                                             zzzzz~~)zz                   ",
"           zzzcggtzzzzzztggzzz    zzz*zz                                                                                                                                                                                             zzzzzzzz                   ",
"           zz5c5c5zzzzzz555czz    zz**zz                                                                                                                                                                                               zzzzz                    ",
"           zzzzzzzzzzzzzzzzzzz    zzzzzz                                                                                                                                                                                                                        ",
"                                                                                                                                                                                                                                                                "};
