/* XPM */
static char *team_logo_xpm[] = {
/* columns rows colors chars-per-pixel */
"184 32 7 1 ",
"  c #1C232B",
". c #070B14",
"X c black",
"o c #FEFEFE",
"O c #3EBE87",
"+ c #C3121C",
"@ c white",
/* pixels */
"                                                                                                                                                                                        ",
"                   .                                                                                                                                                                    ",
"                 XooX ....                                                                                                                                                              ",
"                  . XoooooXX .....                                                                                                                                                      ",
"              . X    .. oooooooooXX ..                                                                                                                                                  ",
"              OOOO      ...Xoooooooooo                                                                                                                                                  ",
"             XOOOOO         .. XoooooX.                                                                                                                                                 ",
"            .OOOOOO            ..oooo.                                                                                                                                                  ",
"             OOOOOO              ooo.     ...........    ...........    ...........          .........   .. XXXX ... ............         XXXXXXX    XXXXXXXX ..   XXXXXX   XXXXX       ",
"              OOOOX            .ooo.      XOOOOOOOOOXX. .oooooooooooX. .ooooooooooo .        OOOOOOOOOX .ooooooooooo.ooooooooooooX     .XOOOOOOOOOO  oooooooooooX..oooooo.  oooooo.     ",
"               XOXXX           .oo        XOOOOOOOOOOOO .ooooooooooooo..ooooooooooooX.      OOOOOOOOOO .oooooooooooo.ooooooooooooX     XOOOOOOOOOOO  ooooooooooooX.oooooo.  oooooo.     ",
"             XOX XOX      .    XoX.       XOOOOOOOOOOOOX.oooooooooooooX.ooooooooooooo     .OOOOOOOOOOO Xoooooooooooo.ooooooooooooX     OOOOOOOOOOOO  ooooooooooooo.oooooo.  oooooo.     ",
"              OO XOX    .XooXX.oo.        XOOOOOOOOOOOOO.oooooooooooooo.oooooooooooooo.    OOOOOOOOOOO ooooooooooooo.ooooooooooooX     OOOOOOOOOOOO  ooooooXoooooo.oooooo.  oooooo.     ",
"              OO XO     XooooX.o.         XOOOOO XOOOOOO.ooooooXXoooooo.ooooooXooooooo.   XOOOOOOXXXXX oooooo XXXXXX.ooooooXXXXXX      OOOOO ...     oooooX..ooooo.oooooo.  oooooo.     ",
"              XOXOO     X XXooX.          XOOOOO. XOOOOO.oooooo..oooooo.oooooo..oooooo.   XOOOOO      .ooooooooX... .oooooo XXXX.      OOOOOOOXX .   oooooX.Xooooo.oooooo.  oooooo.     ",
"               OOOO     .ooXoo            XOOOOO..XOOOOO.oooooo..oooooo.oooooo..oooooo.   XOOOOO.     .ooooooooooo ..ooooooooooo.      OOOOOOOOOOO   ooooooooooooX.oooooo.  oooooo.     ",
"              .OOOO.    .oooXX.           XOOOOOXXOOOOOO.oooooooooooooo.oooooooooooooo.   XOOOOO      .ooooooooooooX.ooooooooooo.     .OOOOOOOOOOOO  oooooooooooo..oooooo.  oooooo.     ",
"               XOOO.     .XXo   +         XOOOOOOOOOOOOO.oooooooooooooo.oooooooooooooX.   XOOOOO        oooooooooooo.ooooooooooo.       OOOOOOOOOOOX ooooooooooooo.oooooo.  oooooo.     ",
"                OOO         .   ++        XOOOOOOOOOOOO .ooooooooooooo .ooooooooooooo.    XOOOOO         oooooooooooXooooooooooo.        XOOOOOOOOOO ooooooXoooooo oooooo.  oooooo.     ",
"               .OOX             ++        XOOOOOOOOOOOX .ooooooooooooX..oooooooooooo      XOOOOO        ...XooooooooXoooooo.    .      . .. XXOOOOOO oooooX..oooooXoooooo...oooooo.     ",
"                XOX             ++        XOOOOOOOOOOOX .ooooooooooooX..ooooooooooooX     XOOOOOOX XXX XXXX   XoooooXooooooXXXXXX      OOXXXXXOOOOOO oooooX..oooooXoooooooXooooooX      ",
"                XOX             ++        XOOOOO.XOOOOO..oooooo.oooooo..oooooo.oooooo.     OOOOOOOOOOO ooooooooooooo ooooooooooooX     OOOOOOOOOOOOX oooooooooooooXXooooooooooooo       ",
"                 OX             ++        XOOOOO. OOOOO .oooooo.Xooooo..oooooo.oooooo.    .OOOOOOOOOOO ooooooooooooo.ooooooooooooX     OOOOOOOOOOOO  ooooooooooooo..ooooooooooooo.      ",
"                 O             ++         XOOOOO. OOOOOX.oooooo.XoooooX.oooooo.Xooooo       OOOOOOOOOO ooooooooooooX.ooooooooooooX     OOOOOOOOOOOO. oooooooooooo   Xooooooooooo        ",
"                 X             ++         XOOOOO..OOOOOO.oooooo..oooooo.oooooo. oooooo.      OOOOOOOOO oooooooooooX..ooooooooooooX     XXOOOOOOOOX.  ooooooooooX.     ooooooooo.        ",
"                             +++          ......  ...... ......  ...... ......  .....        .  XXX  . ... XXXXX .   ............      ... XXXXX .   ..........       ...   ...         ",
"                            +++                                                                                                                                                         ",
"                          ++++                                                                                                                                                          ",
"                 +++++++++++                                                                                                                                                            ",
"                     +++                                                                                                                                                                ",
"                                                                                                                                                                                        ",
"                                                                                                                                                                                        "
};
